<svg width="58" height="44" viewBox="0 0 58 44" fill="none" xmlns="http://www.w3.org/2000/svg">
<path d="M25 10C21.3181 10 18.3333 12.9848 18.3333 16.6667C18.3333 20.3486 21.3181 23.3333 25 23.3333C28.6819 23.3333 31.6666 20.3486 31.6666 16.6667C31.6666 12.9848 28.6819 10 25 10ZM21 16.6667C21 14.4575 22.7908 12.6667 25 12.6667C27.2091 12.6667 29 14.4575 29 16.6667C29 18.8758 27.2091 20.6667 25 20.6667C22.7908 20.6667 21 18.8758 21 16.6667Z" fill="#9A41FE"/>
<path d="M35.5445 16.9577C35.1694 16.7665 34.7543 16.6667 34.3333 16.6667V14.0001C35.1754 14.0001 36.0056 14.1994 36.7558 14.5819C36.8385 14.6241 36.9199 14.6683 37 14.7145C37.6472 15.0882 38.2095 15.5943 38.6497 16.2007C39.1443 16.8823 39.4705 17.6713 39.6016 18.5032C39.7327 19.335 39.6649 20.1861 39.4039 20.9867C39.1428 21.7874 38.6958 22.5148 38.0996 23.1095C37.5033 23.7042 36.7747 24.1492 35.9734 24.4082C35.2603 24.6387 34.5077 24.7159 33.7647 24.6363C33.6727 24.6264 33.5809 24.6141 33.4893 24.5995C32.6584 24.4663 31.8707 24.1384 31.1908 23.6425L31.1894 23.6415L32.7613 21.4874C33.1015 21.7356 33.4956 21.8997 33.9113 21.9663C34.3271 22.033 34.7527 22.0002 35.1533 21.8707C35.554 21.7412 35.9183 21.5187 36.2164 21.2214C36.5145 20.924 36.738 20.5603 36.8685 20.16C36.999 19.7597 37.0329 19.3342 36.9674 18.9183C36.9018 18.5023 36.7387 18.1079 36.4914 17.7671C36.2441 17.4263 35.9196 17.149 35.5445 16.9577Z" fill="#9A41FE"/>
<path d="M39.6641 34C39.6641 33.2999 39.5262 32.6068 39.2583 31.96C38.9904 31.3132 38.5978 30.7256 38.1027 30.2306C37.6077 29.7355 37.0201 29.3429 36.3733 29.075C35.7265 28.8071 35.0333 28.6692 34.3333 28.6692V26C35.2427 26 36.1445 26.1551 37 26.4575C37.1327 26.5045 37.2644 26.555 37.3948 26.609C38.3654 27.011 39.2473 27.6003 39.9901 28.3431C40.733 29.086 41.3223 29.9679 41.7243 30.9385C41.7783 31.0689 41.8288 31.2006 41.8758 31.3333C42.1782 32.1888 42.3333 33.0906 42.3333 34H39.6641Z" fill="#9A41FE"/>
<path d="M34.3333 34H31.6666C31.6666 30.3181 28.6819 27.3333 25 27.3333C21.3181 27.3333 18.3333 30.3181 18.3333 34H15.6666C15.6666 28.8453 19.8453 24.6667 25 24.6667C30.1546 24.6667 34.3333 28.8453 34.3333 34Z" fill="#9A41FE"/>
</svg>
