<svg width="48" height="32" viewBox="0 0 48 32" fill="none" xmlns="http://www.w3.org/2000/svg">
<g clip-path="url(#clip0_1202_4335)">
<g clip-path="url(#clip1_1202_4335)">
<path d="M0 0H48V32H0V0Z" fill="#00A6C8"/>
<path d="M24.3634 17.6105C26.8218 17.6105 28.8147 15.6176 28.8147 13.1592C28.8147 10.7008 26.8218 8.70789 24.3634 8.70789C21.905 8.70789 19.9121 10.7008 19.9121 13.1592C19.9121 15.6176 21.905 17.6105 24.3634 17.6105Z" fill="#FFE700"/>
<path d="M24.362 8.10023C24.6266 8.09692 24.7259 7.93151 24.7259 7.73301C24.7259 7.46835 24.362 6.20789 24.362 6.20789C24.362 6.20789 23.998 7.46835 23.998 7.73301C23.998 7.93151 24.0973 8.10023 24.362 8.10023Z" fill="#FFE700"/>
<path d="M29.4202 13.1582C29.4235 13.4229 29.5889 13.5221 29.7874 13.5221C30.052 13.5221 31.3125 13.1582 31.3125 13.1582C31.3125 13.1582 30.052 12.7943 29.7874 12.7943C29.5889 12.7943 29.4202 12.8936 29.4202 13.1582Z" fill="#FFE700"/>
<path d="M24.3626 18.2175C24.098 18.2208 23.9987 18.3862 23.9987 18.5847C23.9987 18.8494 24.3626 20.1099 24.3626 20.1099C24.3626 20.1099 24.7266 18.8494 24.7266 18.5847C24.7266 18.3862 24.6273 18.2175 24.3626 18.2175Z" fill="#FFE700"/>
<path d="M19.3045 13.1584C19.3011 12.8938 19.1357 12.7945 18.9372 12.7945C18.6726 12.7945 17.4121 13.1584 17.4121 13.1584C17.4121 13.1584 18.6726 13.5223 18.9372 13.5223C19.1357 13.5223 19.3045 13.4231 19.3045 13.1584Z" fill="#FFE700"/>
<path d="M26.2995 8.48656C26.5453 8.58479 26.7003 8.46994 26.7763 8.28656C26.8776 8.04204 27.0237 6.73826 27.0237 6.73826C27.0237 6.73826 26.2051 7.76351 26.1039 8.00803C26.0279 8.19142 26.055 8.38528 26.2995 8.48656Z" fill="#FFE700"/>
<path d="M29.0343 15.0958C28.9361 15.3416 29.0509 15.4966 29.2343 15.5725C29.4788 15.6738 30.7826 15.82 30.7826 15.82C30.7826 15.82 29.7574 15.0014 29.5128 14.9001C29.3295 14.8242 29.1356 14.8513 29.0343 15.0958Z" fill="#FFE700"/>
<path d="M22.427 17.8325C22.1812 17.7343 22.0262 17.8491 21.9503 18.0325C21.849 18.2771 21.7029 19.5808 21.7029 19.5808C21.7029 19.5808 22.5214 18.5556 22.6227 18.3111C22.6987 18.1277 22.6715 17.9338 22.427 17.8325Z" fill="#FFE700"/>
<path d="M19.6883 11.2238C19.7866 10.978 19.6717 10.823 19.4883 10.747C19.2438 10.6458 17.94 10.4996 17.94 10.4996C17.94 10.4996 18.9653 11.3182 19.2098 11.4195C19.3932 11.4954 19.5871 11.4683 19.6883 11.2238Z" fill="#FFE700"/>
<path d="M27.9368 9.5826C28.1263 9.7674 28.3134 9.72062 28.4538 9.58026C28.6409 9.39311 29.2749 8.24451 29.2749 8.24451C29.2749 8.24451 28.1263 8.87846 27.9392 9.06561C27.7988 9.20597 27.7497 9.39545 27.9368 9.5826Z" fill="#FFE700"/>
<path d="M27.9397 16.7355C27.7549 16.925 27.8017 17.1121 27.9421 17.2525C28.1292 17.4397 29.2778 18.0736 29.2778 18.0736C29.2778 18.0736 28.6439 16.925 28.4567 16.7379C28.3164 16.5975 28.1269 16.5484 27.9397 16.7355Z" fill="#FFE700"/>
<path d="M20.7858 16.7355C20.5964 16.5507 20.4092 16.5975 20.2689 16.7379C20.0817 16.925 19.4478 18.0736 19.4478 18.0736C19.4478 18.0736 20.5964 17.4397 20.7835 17.2525C20.9239 17.1121 20.973 16.9227 20.7858 16.7355Z" fill="#FFE700"/>
<path d="M20.7829 9.58162C20.9677 9.39213 20.9209 9.20499 20.7806 9.06463C20.5934 8.87748 19.4448 8.24353 19.4448 8.24353C19.4448 8.24353 20.0788 9.39213 20.2659 9.57928C20.4063 9.71964 20.5958 9.76877 20.7829 9.58162Z" fill="#FFE700"/>
<path d="M29.0374 11.2238C29.1418 11.4671 29.3326 11.4955 29.516 11.4195C29.7605 11.3182 30.7857 10.4997 30.7857 10.4997C30.7857 10.4997 29.482 10.6458 29.2375 10.7471C29.0541 10.8231 28.9362 10.9793 29.0374 11.2238Z" fill="#FFE700"/>
<path d="M26.299 17.8332C26.0557 17.9376 26.0274 18.1284 26.1033 18.3118C26.2046 18.5563 27.0232 19.5815 27.0232 19.5815C27.0232 19.5815 26.877 18.2777 26.7757 18.0332C26.6998 17.8498 26.5435 17.7319 26.299 17.8332Z" fill="#FFE700"/>
<path d="M19.6891 15.0953C19.5848 14.852 19.394 14.8236 19.2106 14.8996C18.9661 15.0009 17.9408 15.8194 17.9408 15.8194C17.9408 15.8194 19.2446 15.6733 19.4891 15.572C19.6725 15.496 19.7904 15.3398 19.6891 15.0953Z" fill="#FFE700"/>
<path d="M22.4276 8.48587C22.6708 8.38153 22.6992 8.19072 22.6232 8.00734C22.522 7.76282 21.7034 6.73757 21.7034 6.73757C21.7034 6.73757 21.8495 8.04134 21.9508 8.28586C22.0268 8.46925 22.1831 8.58715 22.4276 8.48587Z" fill="#FFE700"/>
<path d="M25.3374 8.19883C25.5976 8.24722 25.7272 8.10435 25.7659 7.90966C25.8175 7.65008 25.7065 6.34285 25.7065 6.34285C25.7065 6.34285 25.1037 7.50809 25.0521 7.76767C25.0133 7.96235 25.0778 8.1472 25.3374 8.19883Z" fill="#FFE700"/>
<path d="M29.3093 14.1468C29.261 14.407 29.4038 14.5366 29.5985 14.5754C29.8581 14.627 31.1653 14.516 31.1653 14.516C31.1653 14.516 30.0001 13.9132 29.7405 13.8615C29.5458 13.8228 29.361 13.8872 29.3093 14.1468Z" fill="#FFE700"/>
<path d="M23.3619 18.1217C23.1016 18.0733 22.972 18.2162 22.9333 18.4109C22.8817 18.6705 22.9927 19.9777 22.9927 19.9777C22.9927 19.9777 23.5955 18.8125 23.6471 18.5529C23.6859 18.3582 23.6214 18.1734 23.3619 18.1217Z" fill="#FFE700"/>
<path d="M19.3879 12.1738C19.4363 11.9135 19.2934 11.7839 19.0987 11.7452C18.8392 11.6936 17.5319 11.8046 17.5319 11.8046C17.5319 11.8046 18.6972 12.4074 18.9568 12.459C19.1514 12.4978 19.3363 12.4333 19.3879 12.1738Z" fill="#FFE700"/>
<path d="M27.1653 8.95346C27.3872 9.09775 27.5616 9.01535 27.6719 8.85031C27.819 8.63025 28.2166 7.38004 28.2166 7.38004C28.2166 7.38004 27.2138 8.22589 27.0667 8.44595C26.9565 8.611 26.9453 8.80642 27.1653 8.95346Z" fill="#FFE700"/>
<path d="M28.5642 15.9696C28.4199 16.1915 28.5023 16.366 28.6674 16.4762C28.8875 16.6233 30.1377 17.021 30.1377 17.021C30.1377 17.021 29.2918 16.0181 29.0717 15.8711C28.9067 15.7608 28.7113 15.7496 28.5642 15.9696Z" fill="#FFE700"/>
<path d="M21.5476 17.3656C21.3257 17.2213 21.1513 17.3037 21.041 17.4688C20.8939 17.6888 20.4962 18.9391 20.4962 18.9391C20.4962 18.9391 21.4991 18.0932 21.6461 17.8731C21.7564 17.7081 21.7676 17.5127 21.5476 17.3656Z" fill="#FFE700"/>
<path d="M20.1487 10.3499C20.2929 10.128 20.2105 9.95362 20.0455 9.84335C19.8254 9.69631 18.5752 9.29861 18.5752 9.29861C18.5752 9.29861 19.4211 10.3015 19.6411 10.4485C19.8062 10.5588 20.0016 10.57 20.1487 10.3499Z" fill="#FFE700"/>
<path d="M28.5682 10.3498C28.718 10.568 28.9107 10.5586 29.0757 10.4483C29.2958 10.3013 30.1416 9.29843 30.1416 9.29843C30.1416 9.29843 28.8914 9.69612 28.6714 9.84316C28.5063 9.95344 28.4212 10.1297 28.5682 10.3498Z" fill="#FFE700"/>
<path d="M27.1733 17.3654C26.9551 17.5152 26.9645 17.7079 27.0747 17.873C27.2218 18.093 28.2246 18.9389 28.2246 18.9389C28.2246 18.9389 27.8269 17.6887 27.6799 17.4686C27.5696 17.3036 27.3934 17.2184 27.1733 17.3654Z" fill="#FFE700"/>
<path d="M20.1543 15.9697C20.0045 15.7515 19.8119 15.7609 19.6468 15.8711C19.4268 16.0182 18.5809 17.021 18.5809 17.021C18.5809 17.021 19.8311 16.6233 20.0512 16.4763C20.2162 16.366 20.3014 16.1898 20.1543 15.9697Z" fill="#FFE700"/>
<path d="M21.5493 8.95426C21.7676 8.80447 21.7582 8.61179 21.6479 8.44674C21.5009 8.22668 20.498 7.38083 20.498 7.38083C20.498 7.38083 20.8957 8.63104 21.0427 8.8511C21.153 9.01615 21.3293 9.1013 21.5493 8.95426Z" fill="#FFE700"/>
<path d="M29.3183 12.1736C29.3732 12.4325 29.5548 12.4976 29.7494 12.4589C30.009 12.4073 31.1743 11.8044 31.1743 11.8044C31.1743 11.8044 29.867 11.6934 29.6075 11.745C29.4128 11.7838 29.2666 11.914 29.3183 12.1736Z" fill="#FFE700"/>
<path d="M25.3459 18.1215C25.087 18.1764 25.0219 18.358 25.0606 18.5527C25.1123 18.8122 25.7151 19.9775 25.7151 19.9775C25.7151 19.9775 25.8261 18.6703 25.7745 18.4107C25.7358 18.216 25.6055 18.0699 25.3459 18.1215Z" fill="#FFE700"/>
<path d="M19.3961 14.1472C19.3412 13.8883 19.1596 13.8232 18.9649 13.8619C18.7053 13.9135 17.5401 14.5164 17.5401 14.5164C17.5401 14.5164 18.8473 14.6274 19.1069 14.5758C19.3016 14.537 19.4477 14.4068 19.3961 14.1472Z" fill="#FFE700"/>
<path d="M23.3723 8.19881C23.6313 8.14393 23.6963 7.96233 23.6576 7.76765C23.606 7.50807 23.0032 6.34282 23.0032 6.34282C23.0032 6.34282 22.8921 7.65006 22.9438 7.90964C22.9825 8.10432 23.1128 8.25044 23.3723 8.19881Z" fill="#FFE700"/>
<path d="M23.5686 22.8016C23.4495 22.8083 23.3337 22.8237 23.2201 22.8601C23.0646 22.881 22.9157 22.9351 22.7614 22.9604L22.6996 22.9704L22.596 22.9803C22.6026 23.0089 22.607 23.0376 22.607 23.0663C22.607 23.0961 22.6037 23.1247 22.596 23.149C22.5893 23.1722 22.5684 23.2008 22.5518 23.2185C22.5298 23.2427 22.5066 23.2637 22.4791 23.2769C22.4526 23.2901 22.4228 23.2957 22.393 23.2979C22.3633 23.299 22.3324 23.2979 22.3037 23.2868C22.2739 23.2769 22.2464 23.2582 22.221 23.2361C22.1901 23.2438 22.1581 23.2493 22.1284 23.2527C22.0975 23.256 22.0688 23.256 22.0413 23.2527C22.0104 23.2438 21.9784 23.2339 21.9486 23.2218C21.9186 23.2094 21.8899 23.1942 21.8626 23.1766C21.7501 23.2427 21.6244 23.3056 21.556 23.4214C21.5175 23.4743 21.5097 23.535 21.5009 23.5978C21.4954 23.675 21.5152 23.7566 21.5483 23.8283C21.5605 23.8492 21.5704 23.7522 21.6079 23.739C21.6707 23.6871 21.749 23.6497 21.8284 23.6287C21.8957 23.5945 21.8869 23.6309 21.8593 23.6838C21.8527 23.7114 21.8152 23.8162 21.8659 23.7632C22.0898 23.664 22.3379 23.6441 22.5794 23.6254C22.9301 23.589 23.2819 23.5813 23.6336 23.5769C23.9645 23.5813 24.2953 23.5857 24.6261 23.5978C24.7838 23.6022 24.9426 23.6375 25.0981 23.611C25.1356 23.6011 25.1941 23.5989 25.2161 23.5769C25.1455 23.5361 25.0628 23.535 24.9846 23.525H24.3538C24.1784 23.5074 23.9954 23.5052 23.83 23.439C23.7858 23.4214 23.745 23.3795 23.7031 23.4247C23.6403 23.4468 23.573 23.4622 23.5068 23.4666C23.391 23.4754 23.2753 23.4512 23.1683 23.4081C23.2455 23.3012 23.3381 23.2074 23.423 23.1082C23.3547 23.0972 23.2885 23.0828 23.2201 23.0663C23.3403 22.9836 23.4517 22.8898 23.5686 22.8016Z" fill="#FFE700"/>
<path d="M28.7229 23.9445C28.4832 24.0884 28.3002 23.8333 28.0999 23.7568C27.9568 23.8345 27.9434 24.0945 27.8097 24.2176C27.6498 24.3996 27.4538 24.1668 27.4684 23.9872C27.2771 24.1484 27.1803 24.5139 26.871 24.4651C26.7244 24.3455 26.6155 24.0946 26.5036 24.3803C26.4122 24.52 26.1691 24.7187 26.0432 24.5078C26.0042 24.3215 25.9108 24.1025 25.8095 24.3984C25.74 24.6076 25.5167 24.7615 25.3007 24.6699C25.1825 24.5733 25.3955 24.2158 25.245 24.2412C25.0201 24.3899 24.8893 24.7593 24.5754 24.7297C24.4534 24.5928 24.6493 24.361 24.5156 24.2091C24.3578 24.4117 24.1827 24.7083 23.9097 24.7297C23.7778 24.6228 23.9149 24.3161 23.8306 24.2707C23.5505 24.4387 23.2549 24.7381 22.9026 24.6444C23.0399 24.1192 23.6136 23.935 24.096 23.894C24.9261 23.792 25.7993 23.9796 26.5979 23.68C26.7269 23.6015 27.0396 23.4901 26.9282 23.308C26.8297 23.1642 27.1847 23.2205 27.2189 23.0525C27.1977 22.8398 27.3819 22.8691 27.5618 22.8504C28.3682 22.8156 29.1648 22.9855 29.9688 23.0143C30.0295 23.4061 29.595 23.6812 29.2451 23.5602C29.0779 23.5873 28.8273 23.1759 28.8765 23.4752C28.8428 23.6322 28.8664 23.8397 28.7229 23.9446M21.8615 23.1424C22.0481 23.3133 22.1791 23.1102 22.3536 23.036C22.9389 22.8347 23.4495 22.4829 23.953 22.1314C24.258 21.879 24.5225 21.5516 24.9322 21.4697C25.7313 21.2281 26.5807 21.2574 27.3829 21.0344C27.9938 20.1981 29.0313 19.8997 29.9005 19.419C30.0956 19.3584 30.171 19.1977 30.2333 19.0204C30.5651 18.4967 31.017 18.0327 31.5515 17.7157C31.8044 17.5775 32.1061 17.4979 32.3924 17.5611C32.3719 17.9021 32.1763 18.2043 31.9401 18.4401C32.1334 18.4359 32.2995 18.3138 32.4948 18.3206C32.5617 18.6706 32.1838 18.8537 31.9828 19.0716C32.0947 19.0977 32.5238 19.1301 32.29 19.2423C31.9921 19.4491 31.6518 19.591 31.3768 19.8311C31.6306 19.8767 31.6595 19.9307 31.4015 20.0224C31.2618 20.1171 30.9932 20.1502 30.9672 20.3346C31.1589 20.4524 30.8789 20.5694 30.7709 20.6077C30.5644 20.6558 30.3475 20.7455 30.6218 20.9024C30.5181 21.0592 30.2955 21.0926 30.1138 21.0771C30.1689 21.2547 30.2487 21.4535 30.0181 21.5319C29.5012 21.9226 28.8946 22.2069 28.2449 22.2719C29.0566 22.3343 29.8926 22.1836 30.5862 21.7422C30.6778 21.6339 31.158 21.5176 30.8894 21.4265C30.763 21.3739 30.4919 21.3154 30.4735 21.219C30.8492 20.9873 31.3226 21.0697 31.7267 20.932C31.7372 20.8012 31.4193 20.8376 31.3008 20.8078C31.0182 20.7846 31.0348 20.7125 31.3073 20.6858C31.6521 20.5945 32.0426 20.5765 32.3326 20.3517C32.0965 20.2423 31.7994 20.3386 31.5475 20.2493C31.9746 20.0624 32.4785 20.0436 32.8617 19.7628C33.0363 19.5686 32.6381 19.6293 32.5221 19.634C32.2855 19.6752 32.1762 19.562 32.4449 19.4637C32.9038 19.1254 33.4848 18.9056 33.8072 18.4151C33.8835 18.3053 33.9869 17.9744 33.7434 18.0934C33.4231 18.1999 33.1413 18.5599 32.7764 18.4486C33.4954 17.8913 34.1796 17.2569 34.671 16.4858C34.6964 16.2634 34.3473 16.2393 34.2564 16.4139C33.7944 16.859 33.3764 17.3844 32.785 17.6635C33.3514 17.1168 33.8197 16.4694 34.2282 15.7985C34.3158 15.5989 34.5513 15.359 34.4235 15.1374C34.2175 14.9669 33.9599 15.123 33.8529 15.327C33.4938 15.7958 33.2211 16.3429 32.7594 16.7247C33.1636 15.9532 33.5822 15.1319 33.5924 14.242C33.5911 14.0588 33.5543 13.7889 33.3055 13.8232C33.1083 13.8585 33.1552 14.1537 33.0738 14.303C32.8948 14.911 32.8108 15.5694 32.4436 16.1017C32.5262 15.6077 32.6708 15.0927 32.5598 14.5938C32.5079 14.3709 32.1479 14.4668 32.1943 14.6874C31.7641 16.8663 30.3021 18.7719 28.3901 19.8742C27.5146 20.3695 26.5367 20.6889 25.5418 20.8337C25.2741 20.8923 24.9847 20.8579 24.7289 20.9491C24.109 21.4244 23.7337 22.2197 22.9489 22.4688C22.5972 22.6436 22.1385 22.6791 21.887 23.0058C21.8653 23.0476 21.8606 23.096 21.8615 23.1424Z" fill="#FFE700"/>
<path d="M24.2094 20.9316C24.0936 21.1418 24.0254 21.3834 23.8765 21.5716C23.4286 21.164 22.7791 21.1775 22.2109 21.1503C21.7419 21.1253 21.2319 21.082 20.869 20.7475C20.4872 20.4348 20.1756 20.0288 19.749 19.7751C19.3597 19.6692 18.9672 19.5368 18.6542 19.2699C17.9852 18.7246 17.6021 17.9156 16.9485 17.3533C16.8239 17.2306 16.6769 17.1356 16.5373 17.0315C16.4046 17.0638 16.4647 17.3501 16.3023 17.2042C16.214 17.1413 15.9931 17.1352 15.9732 17.223C16.173 17.4864 16.3731 17.7871 16.4008 18.1239C16.2644 18.1378 16.0221 18.0951 15.9546 18.1458C16.1356 18.4171 16.3676 18.6577 16.6312 18.8493C16.5047 18.8696 16.2556 18.8585 16.2071 18.9095C16.4688 19.1227 16.7493 19.3407 17.092 19.3955C17.1621 19.4879 16.9894 19.6664 17.1347 19.7454C17.2189 19.7798 17.4967 19.8373 17.3053 19.9331C17.174 20.0216 17.2227 20.2279 17.3907 20.2232C17.4969 20.2775 17.7353 20.2908 17.754 20.3847C17.6599 20.4805 17.367 20.594 17.6163 20.6838C17.8491 20.8129 18.1147 20.8968 18.3806 20.906C18.2472 21.0183 18.0828 21.082 17.9454 21.1876C18.5591 21.5475 19.2394 21.7841 19.9116 22.012C20.1793 22.1014 20.45 22.1848 20.7274 22.2373C19.9213 22.1908 19.1421 21.9521 18.4078 21.6254C18.0273 21.4585 17.6441 21.2973 17.2541 21.1535C17.4251 21.0645 17.6229 21.0428 17.8003 20.9658C17.4321 20.892 17.03 20.8678 16.7063 20.6655C16.756 20.5769 16.944 20.5728 17.048 20.5277C17.2435 20.4809 17.3648 20.424 17.0891 20.407C16.811 20.3316 16.4921 20.3654 16.247 20.1977C16.2628 20.0971 16.5193 20.1322 16.6237 20.0887C16.7553 20.0661 16.9015 20.0472 17.0066 19.9587C16.5767 19.7805 16.0144 19.9068 15.6777 19.5271C15.6001 19.3825 15.9189 19.499 16.0096 19.4749C16.2403 19.4749 16.4883 19.5482 16.7079 19.4552C16.0815 19.1802 15.4106 18.9228 14.9329 18.4141C14.8798 18.3323 14.7209 18.1089 14.8491 18.0813C15.2209 18.1305 15.4901 18.5362 15.8878 18.4731C15.9406 18.4019 15.6567 18.2851 15.5859 18.1834C15.006 17.6858 14.4432 17.1457 14.0368 16.4939C14.0088 16.2763 14.351 16.2437 14.441 16.4118C14.8845 16.8389 15.2851 17.3373 15.8375 17.6289C16.0335 17.724 15.7249 17.5164 15.6838 17.4412C15.1735 16.8485 14.6876 16.2226 14.3309 15.5246C14.2671 15.3988 14.1613 15.1711 14.3523 15.1041C14.5433 15.0084 14.7328 15.1388 14.8296 15.3029C15.2048 15.7761 15.4809 16.3386 15.9484 16.7329C15.5502 15.9601 15.125 15.1466 15.1147 14.2573C15.124 14.085 15.1351 13.8242 15.3689 13.8313C15.5652 13.8015 15.5342 14.0528 15.5985 14.1726C15.7919 14.8259 15.8762 15.533 16.2642 16.1098C16.1785 15.6252 16.0524 15.1261 16.1362 14.6335C16.1555 14.4717 16.3376 14.4227 16.4565 14.5205C16.5526 14.7557 16.5726 15.0462 16.6602 15.2977C17.1584 17.0021 18.2771 18.5011 19.7349 19.5071C20.9356 20.3306 22.3604 20.8222 23.8147 20.9079C23.946 20.9193 24.0779 20.9233 24.2095 20.9314" fill="#FFE700"/>
<path d="M22.3635 23.1921C22.4067 23.1921 22.4418 23.1571 22.4418 23.1138C22.4418 23.0706 22.4067 23.0355 22.3635 23.0355C22.3202 23.0355 22.2852 23.0706 22.2852 23.1138C22.2852 23.1571 22.3202 23.1921 22.3635 23.1921Z" fill="#FFE700"/>
<path d="M22.3542 23.1326C22.3718 23.1326 22.3861 23.1183 22.3861 23.1007C22.3861 23.083 22.3718 23.0687 22.3542 23.0687C22.3366 23.0687 22.3223 23.083 22.3223 23.1007C22.3223 23.1183 22.3366 23.1326 22.3542 23.1326Z" fill="#FFE700" stroke="#00A6C8" stroke-width="0.1905"/>
<path d="M2.87741 1.90421C2.87741 1.90421 2.64677 1.64034 2.56843 1.7727C2.44243 1.98557 2.95579 3.04592 2.95579 3.41931C2.95579 4.03223 2.65538 4.1989 2.28444 4.28643C2.03554 4.34518 1.63022 4.26186 1.63022 4.26186C1.70654 4.12225 1.75618 4.08111 1.88477 4.06997C1.74161 3.96878 1.59583 3.74912 1.59583 3.40722C1.59583 2.87994 1.75526 2.66259 1.75526 2.06817C1.75526 1.73839 1.55664 1.3186 1.55664 1.3186C1.90774 1.36644 2.08174 1.809 1.98274 2.16269C2.03861 2.17363 2.08934 2.15648 2.13293 2.10028C2.15861 2.1983 2.11805 2.3121 2.06374 2.41016C2.10749 2.44198 2.13962 2.4229 2.20932 2.4033C2.2027 2.50432 2.15825 2.61162 2.04948 2.71265C2.3651 2.60107 2.55931 2.90055 2.55931 3.21409C2.55931 3.4509 2.43742 3.62064 2.31826 3.62064C2.27976 3.62064 2.22319 3.59905 2.1913 3.5666C2.16878 3.63179 2.18038 3.71902 2.20354 3.78421C2.11622 3.75277 2.06078 3.68217 2.10024 3.5352C2.03316 3.52681 1.97981 3.49596 1.94352 3.43718C1.98029 3.37304 2.03609 3.33612 2.10024 3.33913C2.0514 3.2019 2.10583 3.12512 2.18515 3.06284C2.18515 3.06284 2.1347 3.33913 2.26351 3.33913C2.32142 3.33913 2.3742 3.31345 2.3742 3.19723C2.3742 3.09604 2.30923 2.95587 2.15902 2.96479C2.00882 2.97371 1.88705 3.10578 1.88705 3.43222C1.88705 3.73333 2.06546 3.88311 2.30057 3.89278C2.51256 3.9017 2.67257 3.74536 2.67257 3.4476C2.67257 3.05134 2.25238 2.14808 2.25238 1.79498C2.25238 1.53 2.42738 1.38212 2.59862 1.38212C2.82067 1.38212 3.00802 1.68144 3.00802 1.68144L2.87758 1.90411L2.87741 1.90421Z" fill="#FFE700"/>
<path d="M2.92603 9.0664C2.92603 9.72869 2.48928 10.0691 2.14608 10.0691C1.68369 10.0691 1.4375 9.69271 1.4375 9.20003C1.4375 8.92074 1.47508 8.74551 1.56967 8.47821C1.56967 8.47821 2.33239 6.31879 2.62934 5.48359C2.66637 5.37943 2.67832 5.26082 2.67832 5.087C2.67832 4.81852 2.48704 4.59909 2.28648 4.59236C2.10364 4.58615 1.90444 4.8244 1.90444 5.09592C1.90444 5.42569 2.03011 5.57272 2.15913 5.57272C2.31792 5.57272 2.38118 5.48385 2.38118 5.33208C2.38118 5.22632 2.34367 5.18058 2.28974 5.18058C2.15356 5.18058 2.1918 5.43014 2.1918 5.43014C2.12416 5.40998 2.06858 5.31588 2.10036 5.19838C2.049 5.18294 2.00264 5.14545 1.96812 5.09144C2.00462 5.04325 2.0465 5.00607 2.10036 4.99342C2.06846 4.85005 2.11108 4.78003 2.20322 4.75056C2.18462 4.80568 2.184 4.85642 2.19016 4.90429C2.3352 4.84812 2.55751 4.93749 2.55751 5.2786C2.55751 5.61726 2.38485 5.90243 2.06116 5.83117C2.13816 5.88129 2.17732 5.98385 2.18524 6.09854C2.12644 6.06737 2.06116 6.06292 2.06116 6.06292C2.09901 6.15375 2.15157 6.23207 2.14932 6.41047C2.08932 6.37332 2.03356 6.30454 1.95667 6.34806C2.07739 6.67146 1.92907 7.11628 1.55176 7.22152C1.68986 7.00114 1.75747 6.76321 1.75747 6.52633C1.75747 5.75863 1.60075 5.62961 1.60075 5.09589C1.60075 4.87256 1.68506 4.63143 1.85217 4.46754V4.47646C1.74172 4.43618 1.67097 4.36214 1.63029 4.26154C1.88265 4.16411 2.24949 4.1659 2.44644 4.2714C2.67285 4.30712 2.83092 4.54357 2.87748 4.66362C2.92404 4.78353 3.01449 5.21753 2.87748 5.60827C2.72748 6.0359 2.02039 8.07708 1.79992 8.71872C1.75317 8.8548 1.7248 8.99915 1.7248 9.15543C1.7248 9.54849 1.98928 9.68572 2.13952 9.68572C2.31912 9.68572 2.50197 9.49948 2.50197 9.26685C2.50197 9.11946 2.44317 9.03068 2.35828 9.03068C2.15529 9.03068 2.16763 9.26577 2.20809 9.41391C2.08176 9.33657 2.00832 9.19853 2.0285 9.05297C1.95698 9.0396 1.88889 8.99343 1.82606 8.89698C1.8755 8.81203 1.93579 8.74776 2.0285 8.74548C1.98801 8.51964 2.09906 8.42413 2.20809 8.37117C2.1736 8.53692 2.15097 8.72767 2.35828 8.72767C2.50948 8.72767 2.62848 8.76332 2.69788 8.89702C2.70196 8.71875 2.7142 8.01467 2.7142 8.01467C2.72294 7.75008 2.45409 7.75763 2.28321 7.8364C2.3477 7.53166 2.47996 7.36689 2.78606 7.40861C2.71176 7.3663 2.63258 7.27112 2.63258 7.08776C2.63263 6.83967 2.78047 6.56482 2.87752 6.48356L2.92605 9.06643L2.92603 9.0664Z" fill="#FFE700"/>
<path d="M2.92603 11.053C2.92603 10.3907 2.48928 10.0503 2.14608 10.0503C1.68369 10.0503 1.4375 10.4267 1.4375 10.9194C1.4375 11.1986 1.47508 11.3739 1.56967 11.6412C1.56967 11.6412 2.33239 13.8006 2.62934 14.6358C2.66637 14.74 2.67832 14.8586 2.67832 15.0324C2.67832 15.3009 2.48704 15.5203 2.28648 15.527C2.10364 15.5332 1.90444 15.295 1.90444 15.0235C1.90444 14.6937 2.03011 14.5467 2.15913 14.5467C2.31792 14.5467 2.38118 14.6355 2.38118 14.7873C2.38118 14.8931 2.34367 14.9388 2.28974 14.9388C2.15356 14.9388 2.1918 14.6892 2.1918 14.6892C2.12416 14.7094 2.06858 14.8035 2.10036 14.921C2.049 14.9364 2.00264 14.9739 1.96812 15.0279C2.00462 15.0761 2.0465 15.1133 2.10036 15.126C2.06846 15.2693 2.11108 15.3394 2.20322 15.3688C2.18462 15.3137 2.184 15.263 2.19016 15.2151C2.3352 15.2713 2.55751 15.1819 2.55751 14.8408C2.55751 14.5021 2.38485 14.217 2.06116 14.2882C2.13816 14.2381 2.17732 14.1355 2.18524 14.0208C2.12644 14.052 2.06116 14.0565 2.06116 14.0565C2.09901 13.9656 2.15157 13.8873 2.14932 13.7089C2.08932 13.7461 2.03356 13.8148 1.95667 13.7713C2.07739 13.4479 1.92907 13.0031 1.55176 12.8979C1.68986 13.1182 1.75747 13.3562 1.75747 13.5931C1.75747 14.3608 1.60075 14.4898 1.60075 15.0235C1.60075 15.2468 1.68506 15.488 1.85217 15.6518V15.6429C1.74172 15.6832 1.67097 15.7572 1.63029 15.8578C1.88265 15.9553 2.24949 15.9535 2.44644 15.848C2.67285 15.8123 2.83092 15.5758 2.87748 15.4558C2.92404 15.3359 3.01449 14.9019 2.87748 14.5111C2.72748 14.0835 2.02039 12.0423 1.79992 11.4007C1.75317 11.2646 1.7248 11.1202 1.7248 10.964C1.7248 10.5709 1.98928 10.4337 2.13952 10.4337C2.31912 10.4337 2.50197 10.6199 2.50197 10.8525C2.50197 10.9999 2.44317 11.0887 2.35828 11.0887C2.15529 11.0887 2.16763 10.8536 2.20809 10.7055C2.08176 10.7828 2.00832 10.9209 2.0285 11.0664C1.95698 11.0798 1.88889 11.126 1.82606 11.2224C1.8755 11.3074 1.93579 11.3716 2.0285 11.3739C1.98801 11.5997 2.09906 11.6953 2.20809 11.7482C2.1736 11.5825 2.15097 11.3917 2.35828 11.3917C2.50948 11.3917 2.62848 11.3561 2.69788 11.2224C2.70196 11.4006 2.7142 12.1047 2.7142 12.1047C2.72294 12.3693 2.45409 12.3618 2.28321 12.283C2.3477 12.5877 2.47996 12.7525 2.78606 12.7108C2.71176 12.7531 2.63258 12.8483 2.63258 13.0316C2.63263 13.2797 2.78047 13.5546 2.87752 13.6358L2.92605 11.053L2.92603 11.053Z" fill="#FFE700"/>
<path d="M2.87845 1.90421C2.87845 1.90421 3.10909 1.64034 3.18743 1.7727C3.31343 1.98557 2.80007 3.04592 2.80007 3.41931C2.80007 4.03223 3.10047 4.1989 3.47142 4.28643C3.72032 4.34518 4.12563 4.26186 4.12563 4.26186C4.04931 4.12225 3.99968 4.08111 3.87109 4.06997C4.01425 3.96878 4.16003 3.74912 4.16003 3.40722C4.16003 2.87994 4.00059 2.66259 4.00059 2.06817C4.00059 1.73839 4.19922 1.3186 4.19922 1.3186C3.84812 1.36644 3.67412 1.809 3.77312 2.16269C3.71725 2.17363 3.66651 2.15648 3.62293 2.10028C3.59725 2.1983 3.63781 2.3121 3.69212 2.41016C3.64837 2.44198 3.61623 2.4229 3.54654 2.4033C3.55316 2.50432 3.59761 2.61162 3.70638 2.71265C3.39075 2.60107 3.19655 2.90055 3.19655 3.21409C3.19655 3.4509 3.31844 3.62064 3.4376 3.62064C3.4761 3.62064 3.53267 3.59905 3.56456 3.5666C3.58707 3.63179 3.57548 3.71902 3.55232 3.78421C3.63963 3.75277 3.69507 3.68217 3.65562 3.5352C3.7227 3.52681 3.77605 3.49596 3.81234 3.43718C3.77557 3.37304 3.71977 3.33612 3.65562 3.33913C3.70446 3.2019 3.65003 3.12512 3.57071 3.06284C3.57071 3.06284 3.62115 3.33913 3.49235 3.33913C3.43443 3.33913 3.38166 3.31345 3.38166 3.19723C3.38166 3.09604 3.44663 2.95587 3.59684 2.96479C3.74703 2.97371 3.86881 3.10578 3.86881 3.43222C3.86881 3.73333 3.69039 3.88311 3.45529 3.89278C3.2433 3.9017 3.08329 3.74536 3.08329 3.4476C3.08329 3.05134 3.50348 2.14808 3.50348 1.79498C3.50348 1.53 3.32847 1.38212 3.15723 1.38212C2.93519 1.38212 2.74784 1.68144 2.74784 1.68144L2.87828 1.90411L2.87845 1.90421Z" fill="#FFE700"/>
<path d="M2.82983 9.0664C2.82983 9.72869 3.26658 10.0691 3.60978 10.0691C4.07217 10.0691 4.31836 9.69271 4.31836 9.20003C4.31836 8.92074 4.28078 8.74551 4.18619 8.47821C4.18619 8.47821 3.42347 6.31879 3.12652 5.48359C3.08949 5.37943 3.07754 5.26082 3.07754 5.087C3.07754 4.81852 3.26882 4.59909 3.46938 4.59236C3.65222 4.58615 3.85142 4.8244 3.85142 5.09592C3.85142 5.42569 3.72575 5.57272 3.59673 5.57272C3.43794 5.57272 3.37468 5.48385 3.37468 5.33208C3.37468 5.22632 3.41219 5.18058 3.46612 5.18058C3.6023 5.18058 3.56406 5.43014 3.56406 5.43014C3.6317 5.40998 3.68728 5.31588 3.6555 5.19838C3.70686 5.18294 3.75321 5.14545 3.78774 5.09144C3.75124 5.04325 3.70936 5.00607 3.6555 4.99342C3.6874 4.85005 3.64478 4.78003 3.55264 4.75056C3.57124 4.80568 3.57186 4.85642 3.5657 4.90429C3.42066 4.84812 3.19835 4.93749 3.19835 5.2786C3.19835 5.61726 3.37101 5.90243 3.6947 5.83117C3.6177 5.88129 3.57854 5.98385 3.57062 6.09854C3.62942 6.06737 3.6947 6.06292 3.6947 6.06292C3.65685 6.15375 3.60429 6.23207 3.60654 6.41047C3.66654 6.37332 3.7223 6.30454 3.79919 6.34806C3.67847 6.67146 3.82679 7.11628 4.2041 7.22152C4.066 7.00114 3.99839 6.76321 3.99839 6.52633C3.99839 5.75863 4.15511 5.62961 4.15511 5.09589C4.15511 4.87256 4.0708 4.63143 3.90369 4.46754V4.47646C4.01414 4.43618 4.08489 4.36214 4.12557 4.26154C3.87321 4.16411 3.50637 4.1659 3.30942 4.2714C3.08301 4.30712 2.92494 4.54357 2.87838 4.66362C2.83182 4.78353 2.74137 5.21753 2.87838 5.60827C3.02838 6.0359 3.73547 8.07708 3.95594 8.71872C4.00269 8.8548 4.03106 8.99915 4.03106 9.15543C4.03106 9.54849 3.76658 9.68572 3.61634 9.68572C3.43674 9.68572 3.25389 9.49948 3.25389 9.26685C3.25389 9.11946 3.31269 9.03068 3.39758 9.03068C3.60057 9.03068 3.58823 9.26577 3.54777 9.41391C3.6741 9.33657 3.74754 9.19853 3.72736 9.05297C3.79888 9.0396 3.86697 8.99343 3.9298 8.89698C3.88036 8.81203 3.82007 8.74776 3.72736 8.74548C3.76785 8.51964 3.6568 8.42413 3.54777 8.37117C3.58226 8.53692 3.60489 8.72767 3.39758 8.72767C3.24638 8.72767 3.12738 8.76332 3.05798 8.89702C3.0539 8.71875 3.04166 8.01467 3.04166 8.01467C3.03292 7.75008 3.30177 7.75763 3.47265 7.8364C3.40816 7.53166 3.2759 7.36689 2.9698 7.40861C3.0441 7.3663 3.12328 7.27112 3.12328 7.08776C3.12323 6.83967 2.97539 6.56482 2.87834 6.48356L2.82981 9.06643L2.82983 9.0664Z" fill="#FFE700"/>
<path d="M2.82983 11.053C2.82983 10.3907 3.26658 10.0503 3.60978 10.0503C4.07217 10.0503 4.31836 10.4267 4.31836 10.9194C4.31836 11.1986 4.28078 11.3739 4.18619 11.6412C4.18619 11.6412 3.42347 13.8006 3.12652 14.6358C3.08949 14.74 3.07754 14.8586 3.07754 15.0324C3.07754 15.3009 3.26882 15.5203 3.46938 15.527C3.65222 15.5332 3.85142 15.295 3.85142 15.0235C3.85142 14.6937 3.72575 14.5467 3.59673 14.5467C3.43794 14.5467 3.37468 14.6355 3.37468 14.7873C3.37468 14.8931 3.41219 14.9388 3.46612 14.9388C3.6023 14.9388 3.56406 14.6892 3.56406 14.6892C3.6317 14.7094 3.68728 14.8035 3.6555 14.921C3.70686 14.9364 3.75321 14.9739 3.78774 15.0279C3.75124 15.0761 3.70936 15.1133 3.6555 15.126C3.6874 15.2693 3.64478 15.3394 3.55264 15.3688C3.57124 15.3137 3.57186 15.263 3.5657 15.2151C3.42066 15.2713 3.19835 15.1819 3.19835 14.8408C3.19835 14.5021 3.37101 14.217 3.6947 14.2882C3.6177 14.2381 3.57854 14.1355 3.57062 14.0208C3.62942 14.052 3.6947 14.0565 3.6947 14.0565C3.65685 13.9656 3.60429 13.8873 3.60654 13.7089C3.66654 13.7461 3.7223 13.8148 3.79919 13.7713C3.67847 13.4479 3.82679 13.0031 4.2041 12.8979C4.066 13.1182 3.99839 13.3562 3.99839 13.5931C3.99839 14.3608 4.15511 14.4898 4.15511 15.0235C4.15511 15.2468 4.0708 15.488 3.90369 15.6518V15.6429C4.01414 15.6832 4.08489 15.7572 4.12557 15.8578C3.87321 15.9553 3.50637 15.9535 3.30942 15.848C3.08301 15.8123 2.92494 15.5758 2.87838 15.4558C2.83182 15.3359 2.74137 14.9019 2.87838 14.5111C3.02838 14.0835 3.73547 12.0423 3.95594 11.4007C4.00269 11.2646 4.03106 11.1202 4.03106 10.964C4.03106 10.5709 3.76658 10.4337 3.61634 10.4337C3.43674 10.4337 3.25389 10.6199 3.25389 10.8525C3.25389 10.9999 3.31269 11.0887 3.39758 11.0887C3.60057 11.0887 3.58823 10.8536 3.54777 10.7055C3.6741 10.7828 3.74754 10.9209 3.72736 11.0664C3.79888 11.0798 3.86697 11.126 3.9298 11.2224C3.88036 11.3074 3.82007 11.3716 3.72736 11.3739C3.76785 11.5997 3.6568 11.6953 3.54777 11.7482C3.58226 11.5825 3.60489 11.3917 3.39758 11.3917C3.24638 11.3917 3.12738 11.3561 3.05798 11.2224C3.0539 11.4006 3.04166 12.1047 3.04166 12.1047C3.03292 12.3693 3.30177 12.3618 3.47265 12.283C3.40816 12.5877 3.2759 12.7525 2.9698 12.7108C3.0441 12.7531 3.12328 12.8483 3.12328 13.0316C3.12323 13.2797 2.97539 13.5546 2.87834 13.6358L2.82981 11.053L2.82983 11.053Z" fill="#FFE700"/>
<path d="M2.87741 29.8143C2.87741 29.8143 2.64677 30.0782 2.56843 29.9458C2.44243 29.7329 2.95579 28.6726 2.95579 28.2992C2.95579 27.6863 2.65538 27.5196 2.28444 27.4321C2.03554 27.3733 1.63022 27.4566 1.63022 27.4566C1.70654 27.5963 1.75618 27.6374 1.88477 27.6485C1.74161 27.7497 1.59583 27.9694 1.59583 28.3113C1.59583 28.8386 1.75526 29.0559 1.75526 29.6503C1.75526 29.9801 1.55664 30.3999 1.55664 30.3999C1.90774 30.3521 2.08174 29.9095 1.98274 29.5558C2.03861 29.5449 2.08934 29.562 2.13293 29.6182C2.15861 29.5202 2.11805 29.4064 2.06374 29.3083C2.10749 29.2765 2.13962 29.2956 2.20932 29.3152C2.2027 29.2142 2.15825 29.1069 2.04948 29.0059C2.3651 29.1174 2.55931 28.818 2.55931 28.5044C2.55931 28.2676 2.43742 28.0979 2.31826 28.0979C2.27976 28.0979 2.22319 28.1195 2.1913 28.1519C2.16878 28.0867 2.18038 27.9995 2.20354 27.9343C2.11622 27.9657 2.06078 28.0363 2.10024 28.1833C2.03316 28.1917 1.97981 28.2225 1.94352 28.2813C1.98029 28.3455 2.03609 28.3824 2.10024 28.3794C2.0514 28.5166 2.10583 28.5934 2.18515 28.6557C2.18515 28.6557 2.1347 28.3794 2.26351 28.3794C2.32142 28.3794 2.3742 28.4051 2.3742 28.5213C2.3742 28.6225 2.30923 28.7626 2.15902 28.7537C2.00882 28.7448 1.88705 28.6127 1.88705 28.2863C1.88705 27.9852 2.06546 27.8354 2.30057 27.8257C2.51256 27.8168 2.67257 27.9731 2.67257 28.2709C2.67257 28.6672 2.25238 29.5704 2.25238 29.9235C2.25238 30.1885 2.42738 30.3364 2.59862 30.3364C2.82067 30.3364 3.00802 30.0371 3.00802 30.0371L2.87758 29.8144L2.87741 29.8143Z" fill="#FFE700"/>
<path d="M2.92603 22.6522C2.92603 21.9899 2.48928 21.6495 2.14608 21.6495C1.68369 21.6495 1.4375 22.0259 1.4375 22.5186C1.4375 22.7979 1.47508 22.9731 1.56967 23.2404C1.56967 23.2404 2.33239 25.3998 2.62934 26.235C2.66637 26.3392 2.67832 26.4578 2.67832 26.6316C2.67832 26.9001 2.48704 27.1195 2.28648 27.1263C2.10364 27.1325 1.90444 26.8942 1.90444 26.6227C1.90444 26.2929 2.03011 26.1459 2.15913 26.1459C2.31792 26.1459 2.38118 26.2348 2.38118 26.3865C2.38118 26.4923 2.34367 26.5381 2.28974 26.5381C2.15356 26.5381 2.1918 26.2885 2.1918 26.2885C2.12416 26.3087 2.06858 26.4028 2.10036 26.5202C2.049 26.5357 2.00264 26.5732 1.96812 26.6272C2.00462 26.6754 2.0465 26.7126 2.10036 26.7252C2.06846 26.8686 2.11108 26.9386 2.20322 26.9681C2.18462 26.9129 2.184 26.8622 2.19016 26.8143C2.3352 26.8705 2.55751 26.7811 2.55751 26.44C2.55751 26.1014 2.38485 25.8162 2.06116 25.8875C2.13816 25.8373 2.17732 25.7348 2.18524 25.6201C2.12644 25.6513 2.06116 25.6557 2.06116 25.6557C2.09901 25.5649 2.15157 25.4866 2.14932 25.3082C2.08932 25.3453 2.03356 25.4141 1.95667 25.3706C2.07739 25.0472 1.92907 24.6023 1.55176 24.4971C1.68986 24.7175 1.75747 24.9554 1.75747 25.1923C1.75747 25.96 1.60075 26.089 1.60075 26.6227C1.60075 26.8461 1.68506 27.0872 1.85217 27.2511V27.2422C1.74172 27.2825 1.67097 27.3565 1.63029 27.4571C1.88265 27.5545 2.24949 27.5527 2.44644 27.4472C2.67285 27.4115 2.83092 27.1751 2.87748 27.055C2.92404 26.9351 3.01449 26.5011 2.87748 26.1104C2.72748 25.6827 2.02039 23.6416 1.79992 22.9999C1.75317 22.8638 1.7248 22.7195 1.7248 22.5632C1.7248 22.1701 1.98928 22.0329 2.13952 22.0329C2.31912 22.0329 2.50197 22.2191 2.50197 22.4518C2.50197 22.5992 2.44317 22.6879 2.35828 22.6879C2.15529 22.6879 2.16763 22.4529 2.20809 22.3047C2.08176 22.3821 2.00832 22.5201 2.0285 22.6657C1.95698 22.679 1.88889 22.7252 1.82606 22.8216C1.8755 22.9066 1.93579 22.9709 2.0285 22.9732C1.98801 23.199 2.09906 23.2945 2.20809 23.3475C2.1736 23.1817 2.15097 22.991 2.35828 22.991C2.50948 22.991 2.62848 22.9553 2.69788 22.8216C2.70196 22.9999 2.7142 23.704 2.7142 23.704C2.72294 23.9685 2.45409 23.961 2.28321 23.8822C2.3477 24.187 2.47996 24.3517 2.78606 24.31C2.71176 24.3523 2.63258 24.4475 2.63258 24.6309C2.63263 24.879 2.78047 25.1538 2.87752 25.2351L2.92605 22.6522L2.92603 22.6522Z" fill="#FFE700"/>
<path d="M2.92603 20.6655C2.92603 21.3278 2.48928 21.6682 2.14608 21.6682C1.68369 21.6682 1.4375 21.2918 1.4375 20.7992C1.4375 20.5199 1.47508 20.3446 1.56967 20.0773C1.56967 20.0773 2.33239 17.9179 2.62934 17.0827C2.66637 16.9785 2.67832 16.8599 2.67832 16.6861C2.67832 16.4176 2.48704 16.1982 2.28648 16.1915C2.10364 16.1853 1.90444 16.4235 1.90444 16.695C1.90444 17.0248 2.03011 17.1718 2.15913 17.1718C2.31792 17.1718 2.38118 17.083 2.38118 16.9312C2.38118 16.8254 2.34367 16.7797 2.28974 16.7797C2.15356 16.7797 2.1918 17.0293 2.1918 17.0293C2.12416 17.0091 2.06858 16.915 2.10036 16.7975C2.049 16.7821 2.00264 16.7446 1.96812 16.6906C2.00462 16.6424 2.0465 16.6052 2.10036 16.5925C2.06846 16.4492 2.11108 16.3792 2.20322 16.3497C2.18462 16.4048 2.184 16.4555 2.19016 16.5034C2.3352 16.4472 2.55751 16.5366 2.55751 16.8777C2.55751 17.2164 2.38485 17.5016 2.06116 17.4303C2.13816 17.4804 2.17732 17.583 2.18524 17.6977C2.12644 17.6665 2.06116 17.662 2.06116 17.662C2.09901 17.7529 2.15157 17.8312 2.14932 18.0096C2.08932 17.9724 2.03356 17.9037 1.95667 17.9472C2.07739 18.2706 1.92907 18.7154 1.55176 18.8206C1.68986 18.6003 1.75747 18.3623 1.75747 18.1255C1.75747 17.3578 1.60075 17.2287 1.60075 16.695C1.60075 16.4717 1.68506 16.2306 1.85217 16.0667V16.0756C1.74172 16.0353 1.67097 15.9613 1.63029 15.8607C1.88265 15.7632 2.24949 15.765 2.44644 15.8705C2.67285 15.9062 2.83092 16.1427 2.87748 16.2627C2.92404 16.3826 3.01449 16.8167 2.87748 17.2074C2.72748 17.635 2.02039 19.6762 1.79992 20.3178C1.75317 20.4539 1.7248 20.5983 1.7248 20.7546C1.7248 21.1476 1.98928 21.2848 2.13952 21.2848C2.31912 21.2848 2.50197 21.0986 2.50197 20.866C2.50197 20.7186 2.44317 20.6298 2.35828 20.6298C2.15529 20.6298 2.16763 20.8649 2.20809 21.013C2.08176 20.9357 2.00832 20.7976 2.0285 20.6521C1.95698 20.6387 1.88889 20.5926 1.82606 20.4961C1.8755 20.4112 1.93579 20.3469 2.0285 20.3446C1.98801 20.1188 2.09906 20.0233 2.20809 19.9703C2.1736 20.136 2.15097 20.3268 2.35828 20.3268C2.50948 20.3268 2.62848 20.3624 2.69788 20.4961C2.70196 20.3179 2.7142 19.6138 2.7142 19.6138C2.72294 19.3492 2.45409 19.3567 2.28321 19.4355C2.3477 19.1308 2.47996 18.966 2.78606 19.0077C2.71176 18.9654 2.63258 18.8702 2.63258 18.6869C2.63263 18.4388 2.78047 18.1639 2.87752 18.0827L2.92605 20.6655L2.92603 20.6655Z" fill="#FFE700"/>
<path d="M2.87845 29.8138C2.87845 29.8138 3.10909 30.0777 3.18743 29.9453C3.31343 29.7325 2.80007 28.6721 2.80007 28.2987C2.80007 27.6858 3.10047 27.5191 3.47142 27.4316C3.72032 27.3728 4.12563 27.4562 4.12563 27.4562C4.04931 27.5958 3.99968 27.6369 3.87109 27.648C4.01425 27.7492 4.16003 27.9689 4.16003 28.3108C4.16003 28.8381 4.00059 29.0554 4.00059 29.6499C4.00059 29.9796 4.19922 30.3994 4.19922 30.3994C3.84812 30.3516 3.67412 29.909 3.77312 29.5553C3.71725 29.5444 3.66651 29.5615 3.62293 29.6177C3.59725 29.5197 3.63781 29.4059 3.69212 29.3079C3.64837 29.276 3.61623 29.2951 3.54654 29.3147C3.55316 29.2137 3.59761 29.1064 3.70638 29.0054C3.39075 29.1169 3.19655 28.8175 3.19655 28.5039C3.19655 28.2671 3.31844 28.0974 3.4376 28.0974C3.4761 28.0974 3.53267 28.119 3.56456 28.1514C3.58707 28.0862 3.57548 27.999 3.55232 27.9338C3.63963 27.9652 3.69507 28.0359 3.65562 28.1828C3.7227 28.1912 3.77605 28.2221 3.81234 28.2808C3.77557 28.345 3.71977 28.3819 3.65562 28.3789C3.70446 28.5161 3.65003 28.5929 3.57071 28.6552C3.57071 28.6552 3.62115 28.3789 3.49235 28.3789C3.43443 28.3789 3.38166 28.4046 3.38166 28.5208C3.38166 28.622 3.44663 28.7621 3.59684 28.7532C3.74703 28.7443 3.86881 28.6122 3.86881 28.2858C3.86881 27.9847 3.69039 27.8349 3.45529 27.8252C3.2433 27.8163 3.08329 27.9727 3.08329 28.2704C3.08329 28.6667 3.50348 29.5699 3.50348 29.923C3.50348 30.188 3.32847 30.3359 3.15723 30.3359C2.93519 30.3359 2.74784 30.0366 2.74784 30.0366L2.87828 29.8139L2.87845 29.8138Z" fill="#FFE700"/>
<path d="M2.82983 22.6517C2.82983 21.9895 3.26658 21.6491 3.60978 21.6491C4.07217 21.6491 4.31836 22.0254 4.31836 22.5181C4.31836 22.7974 4.28078 22.9726 4.18619 23.2399C4.18619 23.2399 3.42347 25.3994 3.12652 26.2346C3.08949 26.3387 3.07754 26.4573 3.07754 26.6311C3.07754 26.8996 3.26882 27.1191 3.46938 27.1258C3.65222 27.132 3.85142 26.8937 3.85142 26.6222C3.85142 26.2924 3.72575 26.1454 3.59673 26.1454C3.43794 26.1454 3.37468 26.2343 3.37468 26.3861C3.37468 26.4918 3.41219 26.5376 3.46612 26.5376C3.6023 26.5376 3.56406 26.288 3.56406 26.288C3.6317 26.3082 3.68728 26.4023 3.6555 26.5198C3.70686 26.5352 3.75321 26.5727 3.78774 26.6267C3.75124 26.6749 3.70936 26.7121 3.6555 26.7247C3.6874 26.8681 3.64478 26.9381 3.55264 26.9676C3.57124 26.9125 3.57186 26.8617 3.5657 26.8139C3.42066 26.87 3.19835 26.7807 3.19835 26.4395C3.19835 26.1009 3.37101 25.8157 3.6947 25.887C3.6177 25.8368 3.57854 25.7343 3.57062 25.6196C3.62942 25.6508 3.6947 25.6552 3.6947 25.6552C3.65685 25.5644 3.60429 25.4861 3.60654 25.3077C3.66654 25.3448 3.7223 25.4136 3.79919 25.3701C3.67847 25.0467 3.82679 24.6019 4.2041 24.4966C4.066 24.717 3.99839 24.9549 3.99839 25.1918C3.99839 25.9595 4.15511 26.0885 4.15511 26.6223C4.15511 26.8456 4.0708 27.0867 3.90369 27.2506V27.2417C4.01414 27.282 4.08489 27.356 4.12557 27.4566C3.87321 27.554 3.50637 27.5522 3.30942 27.4467C3.08301 27.411 2.92494 27.1746 2.87838 27.0545C2.83182 26.9346 2.74137 26.5006 2.87838 26.1099C3.02838 25.6822 3.73547 23.6411 3.95594 22.9994C4.00269 22.8633 4.03106 22.719 4.03106 22.5627C4.03106 22.1696 3.76658 22.0324 3.61634 22.0324C3.43674 22.0324 3.25389 22.2187 3.25389 22.4513C3.25389 22.5987 3.31269 22.6875 3.39758 22.6875C3.60057 22.6875 3.58823 22.4524 3.54777 22.3042C3.6741 22.3816 3.74754 22.5196 3.72736 22.6652C3.79888 22.6785 3.86697 22.7247 3.9298 22.8212C3.88036 22.9061 3.82007 22.9704 3.72736 22.9727C3.76785 23.1985 3.6568 23.294 3.54777 23.347C3.58226 23.1812 3.60489 22.9905 3.39758 22.9905C3.24638 22.9905 3.12738 22.9548 3.05798 22.8211C3.0539 22.9994 3.04166 23.7035 3.04166 23.7035C3.03292 23.9681 3.30177 23.9605 3.47265 23.8817C3.40816 24.1865 3.2759 24.3513 2.9698 24.3095C3.0441 24.3518 3.12328 24.447 3.12328 24.6304C3.12323 24.8785 2.97539 25.1533 2.87834 25.2346L2.82981 22.6517L2.82983 22.6517Z" fill="#FFE700"/>
<path d="M2.82983 20.665C2.82983 21.3273 3.26658 21.6677 3.60978 21.6677C4.07217 21.6677 4.31836 21.2913 4.31836 20.7987C4.31836 20.5194 4.28078 20.3441 4.18619 20.0768C4.18619 20.0768 3.42347 17.9174 3.12652 17.0822C3.08949 16.9781 3.07754 16.8595 3.07754 16.6856C3.07754 16.4172 3.26882 16.1977 3.46938 16.191C3.65222 16.1848 3.85142 16.423 3.85142 16.6946C3.85142 17.0243 3.72575 17.1714 3.59673 17.1714C3.43794 17.1714 3.37468 17.0825 3.37468 16.9307C3.37468 16.825 3.41219 16.7792 3.46612 16.7792C3.6023 16.7792 3.56406 17.0288 3.56406 17.0288C3.6317 17.0086 3.68728 16.9145 3.6555 16.797C3.70686 16.7816 3.75321 16.7441 3.78774 16.6901C3.75124 16.6419 3.70936 16.6047 3.6555 16.5921C3.6874 16.4487 3.64478 16.3787 3.55264 16.3492C3.57124 16.4043 3.57186 16.4551 3.5657 16.5029C3.42066 16.4468 3.19835 16.5361 3.19835 16.8772C3.19835 17.2159 3.37101 17.5011 3.6947 17.4298C3.6177 17.4799 3.57854 17.5825 3.57062 17.6972C3.62942 17.666 3.6947 17.6616 3.6947 17.6616C3.65685 17.7524 3.60429 17.8307 3.60654 18.0091C3.66654 17.972 3.7223 17.9032 3.79919 17.9467C3.67847 18.2701 3.82679 18.7149 4.2041 18.8202C4.066 18.5998 3.99839 18.3618 3.99839 18.125C3.99839 17.3573 4.15511 17.2282 4.15511 16.6945C4.15511 16.4712 4.0708 16.2301 3.90369 16.0662V16.0751C4.01414 16.0348 4.08489 15.9608 4.12557 15.8602C3.87321 15.7627 3.50637 15.7645 3.30942 15.87C3.08301 15.9057 2.92494 16.1422 2.87838 16.2622C2.83182 16.3822 2.74137 16.8162 2.87838 17.2069C3.02838 17.6345 3.73547 19.6757 3.95594 20.3173C4.00269 20.4534 4.03106 20.5978 4.03106 20.7541C4.03106 21.1471 3.76658 21.2844 3.61634 21.2844C3.43674 21.2844 3.25389 21.0981 3.25389 20.8655C3.25389 20.7181 3.31269 20.6293 3.39758 20.6293C3.60057 20.6293 3.58823 20.8644 3.54777 21.0125C3.6741 20.9352 3.74754 20.7972 3.72736 20.6516C3.79888 20.6382 3.86697 20.5921 3.9298 20.4956C3.88036 20.4107 3.82007 20.3464 3.72736 20.3441C3.76785 20.1183 3.6568 20.0228 3.54777 19.9698C3.58226 20.1356 3.60489 20.3263 3.39758 20.3263C3.24638 20.3263 3.12738 20.3619 3.05798 20.4956C3.0539 20.3174 3.04166 19.6133 3.04166 19.6133C3.03292 19.3487 3.30177 19.3563 3.47265 19.435C3.40816 19.1303 3.2759 18.9655 2.9698 19.0072C3.0441 18.9649 3.12328 18.8698 3.12328 18.6864C3.12323 18.4383 2.97539 18.1635 2.87834 18.0822L2.82981 20.6651L2.82983 20.665Z" fill="#FFE700"/>
</g>
</g>
<defs>
<clipPath id="clip0_1202_4335">
<rect width="48" height="32" rx="10" fill="white"/>
</clipPath>
<clipPath id="clip1_1202_4335">
<rect width="48" height="32" fill="white"/>
</clipPath>
</defs>
</svg>
