<svg width="48" height="32" viewBox="0 0 48 32" fill="none" xmlns="http://www.w3.org/2000/svg">
<g clip-path="url(#clip0_1202_4327)">
<g clip-path="url(#clip1_1202_4327)">
<path d="M0 0H48V32H0V0Z" fill="#007C30"/>
<path d="M0 21.5205H48V0H0" fill="#CE1720"/>
<path d="M9.35673 21.5205V0H0V32H48H9.35673V21.5205Z" fill="#EEEEEE"/>
<path d="M2.61989 14.9333L0.804688 11.9953L2.61989 9.11346L4.42574 11.9953L2.61989 14.9333ZM6.79299 14.9333L4.98714 11.9953L6.79299 9.11346L8.6082 11.9953L6.79299 14.9333ZM2.61989 22.5684L0.804688 19.6304L2.61989 16.7486L4.42574 19.6304L2.61989 22.5684ZM6.79299 22.5684L4.98714 19.6304L6.79299 16.7486L8.6082 19.6304L6.79299 22.5684Z" fill="#CE1720"/>
<path fill-rule="evenodd" clip-rule="evenodd" d="M2.62073 1.46069L4.5023 4.47119L2.62074 7.52872L0.727417 4.47119L2.62073 1.46069ZM6.79211 1.46069L8.68542 4.47119L6.7921 7.52872L4.91054 4.47119L6.79211 1.46069ZM1.49946 4.47387L2.619 6.28183L3.7316 4.47387L2.61901 2.69372L1.49946 4.47387ZM6.79383 2.69372L5.68124 4.47387L6.79384 6.28183L7.91338 4.47387L6.79383 2.69372ZM2.62073 24.3005L4.50209 27.3106L2.62074 30.3796L0.727625 27.3106L2.62073 24.3005ZM6.79211 24.3005L8.68521 27.3106L6.7921 30.3796L4.91075 27.3106L6.79211 24.3005ZM1.49925 27.314L2.619 29.1292L3.7318 27.314L2.61901 25.5335L1.49925 27.314ZM6.79383 25.5335L5.68104 27.314L6.79384 29.1292L7.91359 27.314L6.79383 25.5335Z" fill="#CE1720"/>
</g>
</g>
<defs>
<clipPath id="clip0_1202_4327">
<rect width="48" height="32" rx="10" fill="white"/>
</clipPath>
<clipPath id="clip1_1202_4327">
<rect width="48" height="32" fill="white"/>
</clipPath>
</defs>
</svg>
