<svg width="48" height="32" viewBox="0 0 48 32" fill="none" xmlns="http://www.w3.org/2000/svg">
<g clip-path="url(#clip0_1202_4497)">
<g clip-path="url(#clip1_1202_4497)">
<path d="M0 0H48V32H0V0Z" fill="#EEEEEE"/>
<path fill-rule="evenodd" clip-rule="evenodd" d="M7.32837 9.69299L11.766 3.03659L12.9338 3.81511L8.49616 10.4715L7.32837 9.69299ZM8.99247 10.8024L13.4301 4.14598L14.5979 4.92451L10.1603 11.5809L8.99247 10.8024ZM10.6566 11.9118L15.0942 5.25538L16.262 6.03391L11.8244 12.6903L10.6566 11.9118ZM31.7352 25.9642L36.1728 19.3078L37.3406 20.0863L32.903 26.7427L31.7352 25.9642ZM33.3993 27.0736L37.8369 20.4172L39.0047 21.1957L34.5671 27.8521L33.3993 27.0736ZM40.6688 22.3051L36.2312 28.9615L35.0634 28.183L39.501 21.5266L40.6688 22.3051Z" fill="black"/>
<path fill-rule="evenodd" clip-rule="evenodd" d="M38.6505 26.47L33.1035 22.772L33.7523 21.7988L39.2993 25.4968L38.6505 26.47Z" fill="#EEEEEE"/>
<path d="M30.6547 20.4366C33.1055 16.7603 32.1121 11.7934 28.4359 9.34255C24.7597 6.89174 19.7927 7.88514 17.3419 11.5614C14.8911 15.2376 15.8845 20.2046 19.5607 22.6554C23.2369 25.1062 28.2039 24.1128 30.6547 20.4366Z" fill="#CA163A"/>
<path d="M17.3419 11.5614C16.1171 13.3985 16.6141 15.8836 18.4513 17.1084C20.2885 18.3331 22.7735 17.8361 23.9983 15.999C25.2231 14.1618 27.7081 13.6648 29.5453 14.8896C31.3825 16.1143 31.8795 18.5994 30.6547 20.4366C28.2052 24.1109 23.235 25.1049 19.5607 22.6554C15.8864 20.2058 14.8923 15.2357 17.3419 11.5614Z" fill="#0E4896"/>
<path fill-rule="evenodd" clip-rule="evenodd" d="M36.2309 3.03662L40.6685 9.69305L39.5007 10.4716L35.0631 3.81515L36.2309 3.03662ZM34.5668 4.14606L39.0044 10.8024L37.8367 11.581L33.399 4.92459L34.5668 4.14606ZM32.9027 5.25545L37.3403 11.9118L36.1725 12.6903L31.7349 6.03397L32.9027 5.25545ZM11.824 19.3078L16.2616 25.9642L15.0938 26.7428L10.6562 20.0863L11.824 19.3078ZM10.1599 20.4173L14.5975 27.0736L13.4297 27.8522L8.99213 21.1958L10.1599 20.4173ZM8.49592 21.5266L12.9335 28.1831L11.7657 28.9616L7.32812 22.3052L8.49592 21.5266Z" fill="black"/>
<path d="M10.9648 24.6877L12.629 23.5784L10.9648 24.6877ZM33.4279 9.71231L35.3716 8.41653L33.4279 9.71231ZM37.0357 7.30714L38.6998 6.19775L37.0357 7.30714Z" fill="black"/>
<path fill-rule="evenodd" clip-rule="evenodd" d="M39.0244 6.68459L37.3603 7.79398L36.7115 6.82081L38.3756 5.71143L39.0244 6.68459ZM35.6962 8.90336L33.7525 10.1991L33.1037 9.22599L35.0474 7.9302L35.6962 8.90336ZM12.9535 24.0652L11.2894 25.1746L10.6406 24.2014L12.3047 23.0921L12.9535 24.0652Z" fill="#EEEEEE"/>
</g>
</g>
<defs>
<clipPath id="clip0_1202_4497">
<rect width="48" height="32" rx="2" fill="white"/>
</clipPath>
<clipPath id="clip1_1202_4497">
<rect width="48" height="32" fill="white"/>
</clipPath>
</defs>
</svg>
