<svg width="48" height="32" viewBox="0 0 48 32" fill="none" xmlns="http://www.w3.org/2000/svg">
<g clip-path="url(#clip0_1202_4412)">
<g clip-path="url(#clip1_1202_4412)">
<path d="M0 0.000244141H48V31.9996H0V0.000244141Z" fill="#D80027"/>
<path d="M0 22.261H48V31.9997H0V22.261Z" fill="#6DA544"/>
<path d="M0 0.000244141H48V9.79853H0V0.000244141Z" fill="#338AF3"/>
<path d="M0 11.7698H48V20.175H0V11.7698Z" fill="#EEEEEE"/>
<path d="M0 0.000244141H48V9.79853H0V0.000244141Z" fill="#338AF3"/>
<path d="M17.6895 4.89896C17.6895 3.40046 18.7427 2.14843 20.1491 1.8414C19.9288 1.79312 19.7039 1.7687 19.4783 1.76855C17.7494 1.76855 16.3479 3.17003 16.3479 4.89896C16.3479 6.6279 17.7494 8.02937 19.4783 8.02937C19.7087 8.02937 19.933 8.00378 20.1491 7.95653C18.7427 7.6495 17.6895 6.39747 17.6895 4.89896ZM21.9992 6.32181L22.2111 6.97403H22.8969L22.3421 7.37725L22.5541 8.02937L21.9992 7.62625L21.4443 8.02937L21.6563 7.37725L21.1015 6.97403H21.7873L21.9992 6.32181ZM24.188 6.32181L24.3999 6.97403H25.0857L24.5309 7.37725L24.7428 8.02937L24.188 7.62625L23.6332 8.02937L23.8451 7.37725L23.2904 6.97403H23.9761L24.188 6.32181ZM26.3768 6.32181L26.5887 6.97403H27.2745L26.7197 7.37725L26.9316 8.02937L26.3768 7.62625L25.822 8.02937L26.0339 7.37725L25.4791 6.97403H26.1648L26.3768 6.32181ZM28.5656 6.32181L28.7777 6.97403H29.4634L28.9085 7.37725L29.1205 8.02937L28.5656 7.62625L28.0108 8.02937L28.2228 7.37725L27.6679 6.97403H28.3536L28.5656 6.32181ZM30.7545 6.32181L30.9663 6.97403H31.6521L31.0973 7.37725L31.3093 8.02937L30.7545 7.62625L30.1997 8.02937L30.4115 7.37725L29.8568 6.97403H30.5425L30.7545 6.32181ZM24.188 4.04518L24.3999 4.69731H25.0857L24.5309 5.10043L24.7428 5.75265L24.188 5.34962L23.6332 5.75265L23.8451 5.10043L23.2904 4.69731H23.9761L24.188 4.04518ZM26.3768 4.04518L26.5887 4.69731H27.2745L26.7197 5.10043L26.9316 5.75265L26.3768 5.34962L25.822 5.75265L26.0339 5.10043L25.4791 4.69731H26.1648L26.3768 4.04518ZM28.5656 4.04518L28.7777 4.69731H29.4634L28.9085 5.10043L29.1205 5.75265L28.5656 5.34962L28.0108 5.75265L28.2228 5.10043L27.6679 4.69731H28.3536L28.5656 4.04518ZM30.7545 4.04518L30.9663 4.69731H31.6521L31.0973 5.10043L31.3093 5.75265L30.7545 5.34962L30.1997 5.75265L30.4115 5.10043L29.8568 4.69731H30.5425L30.7545 4.04518ZM26.3768 1.76855L26.5887 2.42068H27.2745L26.7197 2.82381L26.9316 3.47603L26.3768 3.0729L25.822 3.47603L26.0339 2.82381L25.4791 2.42068H26.1648L26.3768 1.76855ZM28.5656 1.76855L28.7777 2.42068H29.4634L28.9085 2.82381L29.1205 3.47603L28.5656 3.0729L28.0108 3.47603L28.2228 2.82381L27.6679 2.42068H28.3536L28.5656 1.76855ZM30.7545 1.76855L30.9663 2.42068H31.6521L31.0973 2.82381L31.3093 3.47603L30.7545 3.0729L30.1997 3.47603L30.4115 2.82381L29.8568 2.42068H30.5425L30.7545 1.76855Z" fill="#EEEEEE"/>
</g>
</g>
<defs>
<clipPath id="clip0_1202_4412">
<rect width="48" height="32" rx="10" fill="white"/>
</clipPath>
<clipPath id="clip1_1202_4412">
<rect width="48" height="32" fill="white"/>
</clipPath>
</defs>
</svg>
