<svg width="48" height="32" viewBox="0 0 48 32" fill="none" xmlns="http://www.w3.org/2000/svg">
<g clip-path="url(#clip0_1202_4329)">
<g clip-path="url(#clip1_1202_4329)">
<path d="M0 0H48V32H0V0Z" fill="#D80027"/>
<path d="M21.221 22.3813L20.3134 20.9216L18.6386 21.3333L19.752 20.014L18.8444 18.5544L20.4444 19.2L21.5485 17.8807L21.4269 19.6023L23.0269 20.2479L21.352 20.6596L21.221 22.3813ZM27.1906 7.67249L26.2456 9.11343L27.331 10.4514L25.6748 10.0023L24.7298 11.4526L24.6362 9.73097L22.9801 9.28185L24.5894 8.66431L24.4959 6.94267L25.5813 8.28068L27.1906 7.67249ZM22.1006 2.37659L21.9134 4.08887L23.4854 4.79998L21.8011 5.15553L21.614 6.86782L20.7532 5.37074L19.0783 5.72629L20.2292 4.44442L19.3684 2.9567L20.9403 3.65846L22.1006 2.37659ZM27.3965 15.1392L26.0023 16.159L26.545 17.7965L25.1509 16.7859L23.7567 17.8152L24.2807 16.1684L22.8865 15.1672L24.6082 15.1579L25.1321 13.5111L25.6748 15.1485L27.3965 15.1392ZM10.7602 4.33214L12.3789 9.33799H17.6374L13.3894 12.4164L15.0082 17.4222L10.7602 14.3345L6.5029 17.4222L8.13097 12.4164L3.87366 9.33799H9.14149L10.7602 4.33214Z" fill="#FFDA44"/>
</g>
</g>
<defs>
<clipPath id="clip0_1202_4329">
<rect width="48" height="32" rx="10" fill="white"/>
</clipPath>
<clipPath id="clip1_1202_4329">
<rect width="48" height="32" fill="white"/>
</clipPath>
</defs>
</svg>
