<svg width="48" height="32" viewBox="0 0 48 32" fill="none" xmlns="http://www.w3.org/2000/svg">
<g clip-path="url(#clip0_1202_4331)">
<g clip-path="url(#clip1_1202_4331)">
<path d="M0 0H48V32.0004H0V0Z" fill="white"/>
<path d="M27 -0.000183105H21V12.9998H0V18.9998H21V31.9997H27V18.9998H48V12.9998H27V-0.000183105Z" fill="#D80027"/>
<path d="M36.9174 21.5649L48 27.722V21.5649H36.9174ZM29.2174 21.5649L48 31.9996V29.049L34.5288 21.5649H29.2174ZM42.997 31.9996L29.2174 24.3436V31.9996H42.997Z" fill="#0052B4"/>
<path d="M29.2174 21.5649L48 31.9996V29.0489L34.5288 21.5649H29.2174Z" fill="white"/>
<path d="M29.2174 21.5649L48 31.9996V29.0489L34.5288 21.5649H29.2174Z" fill="#D80027"/>
<path d="M8.46947 21.5647L0 26.27V21.5647H8.46947ZM18.7826 22.8916V31.9996H2.38978L18.7826 22.8916Z" fill="#0052B4"/>
<path d="M13.4712 21.5649L0 29.0489V31.9996L18.7826 21.5649H13.4712Z" fill="#D80027"/>
<path d="M11.0827 10.4346L0 4.27745V10.4346H11.0827ZM18.7826 10.4346L0 -0.000183105V2.95051L13.4712 10.4346H18.7826ZM5.00306 -0.000183105L18.7826 7.65582V-0.000183105H5.00306Z" fill="#0052B4"/>
<path d="M18.7826 10.4346L0 -0.000183105V2.95051L13.4712 10.4346H18.7826Z" fill="white"/>
<path d="M18.7826 10.4346L0 -0.000183105V2.95051L13.4712 10.4346H18.7826Z" fill="#D80027"/>
<path d="M39.5306 10.4347L48 5.72935V10.4347H39.5306ZM29.2174 9.10773V-0.000183105H45.6103L29.2174 9.10773Z" fill="#0052B4"/>
<path d="M34.5288 10.4345L48 2.95039V-0.000305176L29.2174 10.4345H34.5288Z" fill="#D80027"/>
</g>
</g>
<defs>
<clipPath id="clip0_1202_4331">
<rect width="48" height="32" rx="10" fill="white"/>
</clipPath>
<clipPath id="clip1_1202_4331">
<rect width="48" height="32" fill="white"/>
</clipPath>
</defs>
</svg>
