<svg width="48" height="32" viewBox="0 0 48 32" fill="none" xmlns="http://www.w3.org/2000/svg">
<g clip-path="url(#clip0_1202_4410)">
<g clip-path="url(#clip1_1202_4410)">
<path d="M0 0H48V32H0V0Z" fill="white"/>
<path d="M0 0H48V2.46082H0V0ZM0 4.92164H48V7.38246H0V4.92164ZM0 9.84328H48V12.3041H0V9.84328ZM0 14.7649H48V17.2257H0V14.7649ZM0 19.6959H48V22.1567H0V19.6959ZM0 24.6175H48V27.0784H0V24.6175ZM0 29.5392H48V32H0V29.5392Z" fill="#D80027"/>
<path d="M0 0H24V17.2257H0V0Z" fill="#2E52B2"/>
<path d="M4.47247 12.9965L4.0982 11.7989L3.6865 12.9965H2.45142L3.45259 13.717L3.07832 14.9147L4.0982 14.1755L5.09001 14.9147L4.70639 13.717L5.72627 12.9965H4.47247ZM9.7403 12.9965L9.35668 11.7989L8.9637 12.9965H7.72861L8.72978 13.717L8.35551 14.9147L9.35668 14.1755L10.3672 14.9147L9.99294 13.717L10.9941 12.9965H9.7403ZM15.0269 12.9965L14.6245 11.7989L14.2502 12.9965H12.9871L14.0163 13.717L13.6233 14.9147L14.6245 14.1755L15.6538 14.9147L15.2608 13.717L16.2619 12.9965H15.0269ZM20.2853 12.9965L19.9111 11.7989L19.5181 12.9965H18.2736L19.2842 13.717L18.9099 14.9147L19.9111 14.1755L20.9216 14.9147L20.5193 13.717L21.5485 12.9965H20.2853ZM9.35668 7.04566L8.9637 8.24332H7.72861L8.72978 8.9825L8.35551 10.1614L9.35668 9.43163L10.3672 10.1614L9.99294 8.9825L10.9941 8.24332H9.7403L9.35668 7.04566ZM4.0982 7.04566L3.6865 8.24332H2.45142L3.45259 8.9825L3.07832 10.1614L4.0982 9.43163L5.09001 10.1614L4.70639 8.9825L5.72627 8.24332H4.47247L4.0982 7.04566ZM14.6245 7.04566L14.2502 8.24332H12.9871L14.0163 8.9825L13.6233 10.1614L14.6245 9.43163L15.6538 10.1614L15.2608 8.9825L16.2619 8.24332H15.0269L14.6245 7.04566ZM19.9111 7.04566L19.5181 8.24332H18.2736L19.2842 8.9825L18.9099 10.1614L19.9111 9.43163L20.9216 10.1614L20.5193 8.9825L21.5485 8.24332H20.2853L19.9111 7.04566ZM4.0982 2.31116L3.6865 3.4901H2.45142L3.45259 4.22929L3.07832 5.41759L4.0982 4.67841L5.09001 5.41759L4.70639 4.22929L5.72627 3.4901H4.47247L4.0982 2.31116ZM9.35668 2.31116L8.9637 3.4901H7.72861L8.72978 4.22929L8.35551 5.41759L9.35668 4.67841L10.3672 5.41759L9.99294 4.22929L10.9941 3.4901H9.7403L9.35668 2.31116ZM14.6245 2.31116L14.2502 3.4901H12.9871L14.0163 4.22929L13.6233 5.41759L14.6245 4.67841L15.6538 5.41759L15.2608 4.22929L16.2619 3.4901H15.0269L14.6245 2.31116ZM19.9111 2.31116L19.5181 3.4901H18.2736L19.2842 4.22929L18.9099 5.41759L19.9111 4.67841L20.9216 5.41759L20.5193 4.22929L21.5485 3.4901H20.2853L19.9111 2.31116Z" fill="white"/>
</g>
</g>
<defs>
<clipPath id="clip0_1202_4410">
<rect width="48" height="32" rx="10" fill="white"/>
</clipPath>
<clipPath id="clip1_1202_4410">
<rect width="48" height="32" fill="white"/>
</clipPath>
</defs>
</svg>
