<svg width="48" height="32" viewBox="0 0 48 32" fill="none" xmlns="http://www.w3.org/2000/svg">
<g clip-path="url(#clip0_1202_4540)">
<g clip-path="url(#clip1_1202_4540)">
<path d="M0 0H48V32H0V0Z" fill="#E30A17"/>
<path d="M24.2994 11.0971C23.0737 10.2082 21.586 9.73105 20.0608 9.7404C16.2433 9.7404 13.1556 12.6223 13.1556 16.1872C13.1556 19.7521 16.2527 22.634 20.0608 22.634C21.6608 22.634 23.1392 22.1287 24.2994 21.2772C21.4924 24.8889 16.2807 25.5439 12.669 22.7275C9.05733 19.9112 8.40236 14.7088 11.2187 11.0971C14.0351 7.48543 19.2374 6.83046 22.8491 9.64684C23.3918 10.0679 23.8784 10.5638 24.2994 11.0971ZM28.0328 17.2539L26.3392 19.303L26.4515 16.6457L23.9813 15.6726L26.5357 14.9615L26.7041 12.3135L28.1638 14.531L30.7369 13.8667L29.0994 15.9252L30.531 18.1615L28.0328 17.2539Z" fill="white"/>
</g>
</g>
<defs>
<clipPath id="clip0_1202_4540">
<rect width="48" height="32" rx="10" fill="white"/>
</clipPath>
<clipPath id="clip1_1202_4540">
<rect width="48" height="32" fill="white"/>
</clipPath>
</defs>
</svg>
