<svg width="48" height="32" viewBox="0 0 48 32" fill="none" xmlns="http://www.w3.org/2000/svg">
<g clip-path="url(#clip0_1202_4325)">
<g clip-path="url(#clip1_1202_4325)">
<path d="M0 0H48V32H0V0Z" fill="#EF3340"/>
<path d="M0 0H48V10.6667H0V0Z" fill="#00B5E2"/>
<path d="M0 21.3333H48V32H0V21.3333Z" fill="#509E2F"/>
<path d="M24.8514 19.8924C22.6994 19.8924 20.959 18.152 20.959 16C20.959 13.8479 22.6994 12.1076 24.8514 12.1076C25.5251 12.1076 26.152 12.276 26.7041 12.5754C25.8433 11.7333 24.655 11.2094 23.3544 11.2094C20.7064 11.2094 18.5637 13.352 18.5637 16C18.5637 18.6479 20.7064 20.7906 23.3544 20.7906C24.655 20.7906 25.8433 20.2667 26.7041 19.4246C26.152 19.724 25.5251 19.8924 24.8514 19.8924Z" fill="white"/>
<path d="M27.8456 13.3052L28.3602 14.7555L29.7544 14.0912L29.0901 15.4854L30.5404 16L29.0901 16.5146L29.7544 17.9087L28.3602 17.2444L27.8456 18.6947L27.331 17.2444L25.9368 17.9087L26.6012 16.5146L25.1509 16L26.6012 15.4854L25.9368 14.0912L27.331 14.7555L27.8456 13.3052Z" fill="white"/>
</g>
</g>
<defs>
<clipPath id="clip0_1202_4325">
<rect width="48" height="32" rx="10" fill="white"/>
</clipPath>
<clipPath id="clip1_1202_4325">
<rect width="48" height="32" fill="white"/>
</clipPath>
</defs>
</svg>
