<svg width="48" height="32" viewBox="0 0 48 32" fill="none" xmlns="http://www.w3.org/2000/svg">
<g clip-path="url(#clip0_1202_4333)">
<g clip-path="url(#clip1_1202_4333)">
<path d="M0 0H48.0938V32H0V0Z" fill="#FF0000"/>
<path d="M24 31.9439C32.8382 31.9439 40.0031 24.793 40.0031 15.9719C40.0031 7.15088 32.8382 0 24 0C15.1617 0 7.99683 7.15088 7.99683 15.9719C7.99683 24.793 15.1617 31.9439 24 31.9439Z" fill="#FF0000"/>
<path d="M22.4 28.8C28.5855 28.8 33.5999 23.7856 33.5999 17.6C33.5999 11.4144 28.5855 6.40002 22.4 6.40002C16.2144 6.40002 11.2 11.4144 11.2 17.6C11.2 23.7856 16.2144 28.8 22.4 28.8Z" fill="#FF0000"/>
<path d="M24 30.4L23.509 25.492C23.4922 25.3271 23.5502 25.1591 23.677 25.0522C23.7526 24.9888 23.8572 24.9399 24 24.9422C24.2107 24.946 24.3383 25.0591 24.4123 25.1698C24.4788 25.2683 24.5047 25.3882 24.4933 25.5066L24 30.3992V30.4ZM38.4 16L33.492 15.509C33.3271 15.4922 33.1591 15.5502 33.0522 15.677C32.9888 15.7526 32.9399 15.8572 32.9422 16C32.946 16.2107 33.0591 16.3383 33.1698 16.4123C33.2683 16.4788 33.3882 16.5047 33.5066 16.4933L38.3992 16H38.4ZM38.2228 18.2527L33.4523 17.0003C33.292 16.9583 33.1171 16.9889 32.9919 17.0973C32.917 17.1622 32.8529 17.2585 32.833 17.399C32.8032 17.6082 32.8956 17.751 32.9926 17.8419C33.0797 17.9228 33.1942 17.9679 33.3126 17.974L38.2228 18.2527ZM37.6951 20.4497L33.179 18.4665C33.027 18.4001 32.8498 18.4032 32.7093 18.4902C32.6253 18.5429 32.5467 18.6269 32.5054 18.7636C32.4436 18.9652 32.5123 19.121 32.594 19.2256C32.6673 19.3188 32.7735 19.3814 32.8895 19.4066L37.6951 20.4497ZM36.8307 22.5375L32.6803 19.8724C32.5413 19.7831 32.3649 19.7579 32.2122 19.8228C32.1205 19.8617 32.0304 19.9327 31.9678 20.0603C31.8754 20.2496 31.9182 20.4146 31.9831 20.5307C32.0411 20.6345 32.1358 20.7124 32.2465 20.7552L36.8299 22.5375H36.8307ZM35.6501 24.4642L31.9678 21.1828C31.8441 21.0728 31.6746 21.0202 31.5135 21.0606C31.4172 21.0843 31.3164 21.1408 31.2347 21.2577C31.1133 21.4302 31.1301 21.5998 31.1759 21.725C31.2172 21.8365 31.2981 21.9281 31.4012 21.9885L35.6493 24.4657L35.6501 24.4642ZM34.1824 26.1824L31.0591 22.3649C30.9545 22.2366 30.7949 22.1587 30.6292 22.1733C30.5306 22.1817 30.4222 22.2214 30.3237 22.3237C30.1771 22.4757 30.1671 22.6452 30.1931 22.7758C30.216 22.8926 30.2825 22.9957 30.3741 23.0713L34.1824 26.1824ZM32.4642 27.6501L29.9762 23.3913C29.893 23.2485 29.7471 23.1461 29.5822 23.1347C29.4837 23.1278 29.3707 23.15 29.2569 23.2355C29.0881 23.3622 29.0522 23.5287 29.0568 23.6616C29.0614 23.78 29.1103 23.893 29.1897 23.9816L32.4642 27.6501ZM30.5375 28.8307L28.7468 24.2351C28.6864 24.0808 28.5589 23.9571 28.3978 23.9197C28.3016 23.8976 28.1863 23.9021 28.0603 23.9686C27.8739 24.0671 27.8121 24.2259 27.796 24.358C27.7815 24.4756 27.8128 24.5948 27.877 24.6948L30.5375 28.8307ZM28.4497 29.6951L27.3997 24.8758C27.3646 24.7139 27.2577 24.5719 27.1042 24.51C27.0125 24.4726 26.898 24.4596 26.7636 24.5054C26.5643 24.5742 26.478 24.7208 26.4421 24.8491C26.4093 24.9636 26.4215 25.0858 26.4696 25.1942L28.4505 29.6951H28.4497ZM26.2527 30.2228L25.9694 25.2988C25.9602 25.1331 25.877 24.9766 25.735 24.8911C25.6502 24.8399 25.5395 24.8086 25.399 24.833C25.1913 24.8697 25.0836 25.001 25.0271 25.1217C24.9774 25.2294 24.9698 25.3523 25.0003 25.4668L26.2527 30.2228ZM9.59998 16L14.5079 15.509C14.6729 15.4922 14.8409 15.5502 14.9478 15.677C15.0111 15.7526 15.06 15.8572 15.0577 16C15.0539 16.2107 14.9409 16.3383 14.8302 16.4123C14.7317 16.4788 14.6118 16.5047 14.4934 16.4933L9.60074 16H9.59998ZM9.77714 13.7472L14.7011 14.0305C14.8668 14.0397 15.0234 14.1229 15.1089 14.265C15.1601 14.3497 15.1914 14.4605 15.1669 14.601C15.1303 14.8087 14.9989 14.9164 14.8783 14.9729C14.7706 15.0225 14.6477 15.0301 14.5331 14.9996L9.77714 13.7472ZM10.3048 11.5502L15.1242 12.6002C15.2861 12.6354 15.4281 12.7423 15.4899 12.8958C15.5274 12.9874 15.5403 13.102 15.4945 13.2364C15.4258 13.4357 15.2792 13.522 15.1509 13.5578C15.0363 13.5907 14.9142 13.5785 14.8057 13.5304L10.3048 11.5495V11.5502ZM11.1693 9.46243L15.7649 11.2532C15.9191 11.3135 16.0428 11.441 16.0802 11.6022C16.1024 11.6984 16.0978 11.8137 16.0314 11.9397C15.9329 12.126 15.774 12.1879 15.6419 12.2039C15.5243 12.2184 15.4052 12.1871 15.3051 12.123L11.1693 9.46243ZM12.3499 7.53577L16.6087 10.0237C16.7515 10.1069 16.8538 10.2528 16.8653 10.4178C16.8721 10.5163 16.85 10.6293 16.7645 10.7431C16.6377 10.9118 16.4712 10.9477 16.3384 10.9431C16.22 10.9386 16.107 10.8897 16.0184 10.8103L12.3499 7.53577ZM13.8176 5.81757L17.635 8.94087C17.7633 9.04549 17.8412 9.20509 17.8267 9.3708C17.8183 9.46931 17.7786 9.57774 17.6763 9.67626C17.5243 9.82287 17.3548 9.8328 17.2242 9.80684C17.1073 9.78393 17.0042 9.71749 16.9286 9.62585L13.8176 5.81757ZM15.5358 4.34985L18.8171 8.03213C18.9271 8.15584 18.9798 8.32537 18.9393 8.4865C18.9156 8.58272 18.8591 8.68352 18.7423 8.76523C18.5697 8.88665 18.4002 8.86985 18.275 8.82403C18.1635 8.78279 18.0718 8.70185 18.0115 8.59876L15.5342 4.35061L15.5358 4.34985ZM17.4624 3.16926L20.1275 7.31965C20.2169 7.45864 20.2421 7.63504 20.1772 7.78777C20.1382 7.87941 20.0672 7.96951 19.9397 8.03213C19.7503 8.12453 19.5854 8.08177 19.4693 8.01686C19.3654 7.95882 19.2875 7.86413 19.2448 7.7534L17.4624 3.17002V3.16926ZM19.5502 2.30482L21.5334 6.821C21.5998 6.97296 21.5968 7.15013 21.5097 7.29064C21.457 7.37464 21.373 7.45329 21.2364 7.49453C21.0348 7.55638 20.879 7.48766 20.7744 7.40595C20.6812 7.33264 20.6186 7.22649 20.5934 7.11042L19.5502 2.30482ZM21.7472 1.77714L22.9996 6.54761C23.0416 6.70798 23.0111 6.88285 22.9026 7.00809C22.8377 7.08293 22.7415 7.14707 22.601 7.16693C22.3917 7.19671 22.2489 7.10431 22.1581 7.00733C22.0771 6.92027 22.0321 6.80572 22.026 6.68736L21.7472 1.77714ZM24 1.59998L24.491 6.5079C24.5078 6.67285 24.4498 6.84085 24.323 6.94776C24.2474 7.01114 24.1428 7.06002 24 7.05773C23.7892 7.05391 23.6617 6.94089 23.5876 6.83016C23.5212 6.73165 23.4952 6.61176 23.5067 6.49339L24 1.60074V1.59998ZM21.7472 30.2228L22.9996 25.4523C23.0416 25.292 23.0111 25.1171 22.9026 24.9919C22.8377 24.917 22.7415 24.8529 22.601 24.833C22.3917 24.8032 22.2489 24.8956 22.1581 24.9926C22.0771 25.0797 22.0321 25.1942 22.026 25.3126L21.7472 30.2228ZM19.5502 29.6951L21.5334 25.179C21.5998 25.027 21.5968 24.8498 21.5097 24.7093C21.457 24.6253 21.373 24.5467 21.2364 24.5054C21.0348 24.4436 20.879 24.5123 20.7744 24.594C20.6812 24.6673 20.6186 24.7735 20.5934 24.8895L19.5502 29.6951ZM17.4624 28.8307L20.1275 24.6803C20.2169 24.5413 20.2421 24.3649 20.1772 24.2122C20.1382 24.1205 20.0672 24.0304 19.9397 23.9678C19.7503 23.8754 19.5854 23.9182 19.4693 23.9831C19.3654 24.0411 19.2875 24.1358 19.2448 24.2465L17.4624 28.8299V28.8307ZM15.5358 27.6501L18.8171 23.9678C18.9271 23.8441 18.9798 23.6746 18.9393 23.5135C18.9156 23.4172 18.8591 23.3164 18.7423 23.2347C18.5697 23.1133 18.4002 23.1301 18.275 23.1759C18.1635 23.2172 18.0718 23.2981 18.0115 23.4012L15.5342 27.6493L15.5358 27.6501ZM13.8176 26.1824L17.635 23.0591C17.7633 22.9545 17.8412 22.7949 17.8267 22.6292C17.8183 22.5306 17.7786 22.4222 17.6763 22.3237C17.5243 22.1771 17.3548 22.1672 17.2242 22.1931C17.1073 22.216 17.0042 22.2825 16.9286 22.3741L13.8176 26.1824ZM12.3499 24.4642L16.6087 21.9762C16.7515 21.893 16.8538 21.7471 16.8653 21.5822C16.8721 21.4837 16.85 21.3707 16.7645 21.2569C16.6377 21.0881 16.4712 21.0522 16.3384 21.0568C16.22 21.0614 16.107 21.1103 16.0184 21.1897L12.3499 24.4642ZM11.1693 22.5375L15.7649 20.7468C15.9191 20.6864 16.0428 20.5589 16.0802 20.3978C16.1024 20.3016 16.0978 20.1863 16.0314 20.0603C15.9329 19.8739 15.774 19.8121 15.6419 19.796C15.5243 19.7815 15.4052 19.8128 15.3051 19.877L11.1693 22.5375ZM10.3048 20.4497L15.1242 19.3997C15.2861 19.3646 15.4281 19.2577 15.4899 19.1042C15.5274 19.0125 15.5403 18.898 15.4945 18.7636C15.4258 18.5643 15.2792 18.478 15.1509 18.4421C15.0363 18.4093 14.9142 18.4215 14.8057 18.4696L10.3048 20.4505V20.4497ZM9.77714 18.2527L14.7011 17.9694C14.8668 17.9602 15.0234 17.877 15.1089 17.735C15.1601 17.6502 15.1914 17.5395 15.1669 17.399C15.1303 17.1913 14.9989 17.0836 14.8783 17.0271C14.7706 16.9774 14.6477 16.9698 14.5331 17.0003L9.77714 18.2527ZM26.2527 1.77714L25.9694 6.7011C25.9602 6.86682 25.877 7.02336 25.735 7.10889C25.6502 7.16005 25.5395 7.19136 25.399 7.16693C25.1913 7.13027 25.0836 6.99893 25.0271 6.87827C24.9774 6.7706 24.9698 6.64765 25.0003 6.5331L26.2527 1.77714ZM28.4497 2.30482L27.3997 7.12416C27.3646 7.28606 27.2577 7.42809 27.1042 7.48995C27.0125 7.52737 26.898 7.54035 26.7636 7.49453C26.5643 7.4258 26.478 7.27918 26.4421 7.15089C26.4093 7.03634 26.4215 6.91416 26.4696 6.80572L28.4505 2.30482H28.4497ZM30.5375 3.16926L28.7468 7.76486C28.6864 7.91911 28.5589 8.04282 28.3978 8.08024C28.3016 8.10239 28.1863 8.09781 28.0603 8.03137C27.8739 7.93286 27.8121 7.77402 27.796 7.64191C27.7815 7.52431 27.8128 7.40518 27.877 7.30515L30.5375 3.16926ZM32.4642 4.34985L29.9762 8.60868C29.893 8.75148 29.7471 8.85381 29.5822 8.86527C29.4837 8.87214 29.3707 8.84999 29.2569 8.76447C29.0881 8.6377 29.0522 8.47123 29.0568 8.33835C29.0614 8.21999 29.1103 8.10697 29.1897 8.01839L32.4642 4.34985ZM34.1824 5.81757L31.0591 9.63502C30.9545 9.76331 30.7949 9.8412 30.6292 9.82669C30.5306 9.81829 30.4222 9.77858 30.3237 9.67626C30.1771 9.52429 30.1671 9.35476 30.1931 9.22418C30.216 9.10734 30.2825 9.00425 30.3741 8.92865L34.1824 5.81757ZM35.6501 7.53577L31.9678 10.8171C31.8441 10.9271 31.6746 10.9798 31.5135 10.9393C31.4172 10.9156 31.3164 10.8591 31.2347 10.7423C31.1133 10.5697 31.1301 10.4002 31.1759 10.275C31.2172 10.1635 31.2981 10.0718 31.4012 10.0115L35.6493 7.53424L35.6501 7.53577ZM36.8307 9.46243L32.6803 12.1275C32.5413 12.2169 32.3649 12.2421 32.2122 12.1772C32.1205 12.1382 32.0304 12.0672 31.9678 11.9397C31.8754 11.7503 31.9182 11.5854 31.9831 11.4693C32.0411 11.3654 32.1358 11.2875 32.2465 11.2448L36.8299 9.46243H36.8307ZM37.6951 11.5502L33.179 13.5334C33.027 13.5998 32.8498 13.5968 32.7093 13.5097C32.6253 13.457 32.5467 13.373 32.5054 13.2364C32.4436 13.0348 32.5123 12.879 32.594 12.7744C32.6673 12.6812 32.7735 12.6186 32.8895 12.5934L37.6951 11.5502ZM38.2228 13.7472L33.4523 14.9996C33.292 15.0416 33.1171 15.0111 32.9919 14.9026C32.917 14.8377 32.8529 14.7415 32.833 14.601C32.8032 14.3917 32.8956 14.2489 32.9926 14.1581C33.0797 14.0771 33.1942 14.0321 33.3126 14.026L38.2228 13.7472Z" fill="#FFFF00"/>
<path d="M24 25.6C29.302 25.6 33.6 21.302 33.6 16C33.6 10.6981 29.302 6.40002 24 6.40002C18.6981 6.40002 14.4 10.6981 14.4 16C14.4 21.302 18.6981 25.6 24 25.6Z" fill="#FFFF00"/>
<path d="M23.9672 24C28.3854 24 31.9672 20.4183 31.9672 16C31.9672 11.5817 28.3854 8 23.9672 8C19.5489 8 15.9672 11.5817 15.9672 16C15.9672 20.4183 19.5489 24 23.9672 24Z" fill="#FF0000"/>
<path d="M23.9685 22.9313C27.9261 22.9313 31.1344 19.7459 31.1344 15.8163C31.1344 11.8868 27.9261 8.70135 23.9685 8.70135C20.0109 8.70135 16.8026 11.8868 16.8026 15.8163C16.8026 19.7459 20.0109 22.9313 23.9685 22.9313Z" fill="#FFFF00"/>
<path d="M20.6767 9.44829L20.1836 9.16498L20.1384 9.82411C26.4951 11.4652 29.6236 16.3921 30.6567 18.4863L31.4786 18.0284L30.9514 17.3962C29.7502 14.9795 26.6254 11.1803 20.6767 9.44829ZM19.5197 10.3053L18.811 10.1062L19.0974 10.7374C25.1891 12.47 28.6189 17.2511 29.7925 20.1951L30.4001 20.0089L30.3121 19.3799C28.6082 15.9595 25.8183 12.1929 19.5197 10.3053ZM18.6019 11.1317L18.0266 10.969L18.3117 11.5182C24.4619 13.7877 27.0865 17.9348 28.5354 21.4914L29.3019 21.3816L29.1836 20.8727C28.6789 19.8569 26.4066 13.6084 18.6019 11.1317ZM27.8343 22.0541C26.7543 19.1831 24.1113 14.4036 17.9385 12.0142L17.4187 11.9103L17.5537 12.499C20.0107 13.1124 25.7179 17.3286 27.0776 22.4266L27.8116 22.5189L27.8343 22.0541Z" fill="#FF0000" stroke="#FF0000" stroke-width="0.02"/>
<path d="M27.3616 9.44829L27.8547 9.16498L27.8999 9.82411C21.5432 11.4652 18.4147 16.3921 17.3816 18.4863L16.5597 18.0284L17.0869 17.3962C18.2881 14.9795 21.4129 11.1803 27.3616 9.44829ZM28.5186 10.3053L29.2273 10.1062L28.9409 10.7374C22.8492 12.47 19.4193 17.2511 18.2458 20.1951L17.6382 20.0089L17.7261 19.3799C19.43 15.9595 22.22 12.1929 28.5186 10.3053ZM29.4364 11.1317L30.0117 10.969L29.7266 11.5182C23.5763 13.7877 20.9517 17.9348 19.5029 21.4914L18.7363 21.3816L18.8547 20.8727C19.3594 19.8569 21.6317 13.6084 29.4364 11.1317ZM20.204 22.0541C21.2839 19.1831 23.927 14.4036 30.0998 12.0142L30.6196 11.9103L30.4845 12.499C28.0276 13.1124 22.3204 17.3286 20.9606 22.4266L20.2266 22.5189L20.204 22.0541Z" fill="#FF0000" stroke="#FF0000" stroke-width="0.02"/>
</g>
</g>
<defs>
<clipPath id="clip0_1202_4333">
<rect width="48" height="32" rx="10" fill="white"/>
</clipPath>
<clipPath id="clip1_1202_4333">
<rect width="48" height="32" fill="white"/>
</clipPath>
</defs>
</svg>
