<svg width="48" height="32" viewBox="0 0 48 32" fill="none" xmlns="http://www.w3.org/2000/svg">
<g clip-path="url(#clip0_1202_4523)">
<g clip-path="url(#clip1_1202_4523)">
<path d="M0 0.0100098H48V32.01H0V0.0100098Z" fill="#EEEEEE"/>
<path d="M20.9067 12.8H0V19.2H20.9067V32H27.3067V19.2H48.2133V12.8H27.3067V0H20.9067V12.8Z" fill="#EB000E"/>
<path d="M36.9072 5.7602L36.4806 3.2002H38.6139L38.1872 5.7602L40.7472 5.33353V7.46686L38.1872 7.0402L38.6139 9.6002H36.4806L36.9072 7.0402L34.3472 7.46686V5.33353L36.9072 5.7602ZM9.81391 5.7602L9.38724 3.2002H11.5206L11.0939 5.7602L13.6539 5.33353V7.46686L11.0939 7.0402L11.5206 9.6002H9.38724L9.81391 7.0402L7.25391 7.46686V5.33353L9.81391 5.7602ZM9.81391 24.9602L9.38724 22.4002H11.5206L11.0939 24.9602L13.6539 24.5335V26.6669L11.0939 26.2402L11.5206 28.8002H9.38724L9.81391 26.2402L7.25391 26.6669V24.5335L9.81391 24.9602ZM36.9072 24.9602L36.4806 22.4002H38.6139L38.1872 24.9602L40.7472 24.5335V26.6669L38.1872 26.2402L38.6139 28.8002H36.4806L36.9072 26.2402L34.3472 26.6669V24.5335L36.9072 24.9602Z" fill="#EB000E"/>
</g>
</g>
<defs>
<clipPath id="clip0_1202_4523">
<rect width="48" height="32" rx="10" fill="white"/>
</clipPath>
<clipPath id="clip1_1202_4523">
<rect width="48" height="32" fill="white"/>
</clipPath>
</defs>
</svg>
